<svg stroke-miterlimit="10" style="fill-rule:nonzero;clip-rule:evenodd;stroke-linecap:round;stroke-linejoin:round;" version="1.1" xml:space="preserve" xmlns="http://www.w3.org/2000/svg" xmlns:xlink="http://www.w3.org/1999/xlink" viewBox="1685.13 472.77 641.78 890.96"> <defs></defs> <g id="Layer-7"> <path d="M2002.95 472.767C1908.17 472.767 1831.33 537.452 1831.33 617.246L1831.33 743.303C1831.33 757.703 1843.01 769.376 1857.41 769.376L2148.5 769.376C2162.9 769.376 2174.57 757.703 2174.57 743.303L2174.57 617.246C2174.57 537.452 2097.74 472.767 2002.95 472.767Z" fill="#883f01" fill-rule="nonzero" opacity="1" stroke="none"></path> <path d="M2008.38 822.18C1908.93 822.18 1828.31 902.803 1828.31 1002.26L1828.31 1362.41L2188.46 1362.41L2188.46 1002.26C2188.46 902.802 2107.84 822.18 2008.38 822.18Z" fill="#ffcc7d" fill-rule="nonzero" opacity="1" stroke="none"></path> <path d="M2098.08 846.076L1828.31 1013.16L1828.31 1363.73L2188.46 1363.73L2188.46 1001.86C2188.46 946.451 2154.92 874.518 2098.08 846.076Z" fill="#4bcc57" fill-rule="nonzero" opacity="1" stroke="none"></path> <path d="M1850.89 648.929C1850.89 563.686 1919.99 494.582 2005.24 494.582C2090.48 494.582 2159.58 563.686 2159.58 648.929C2159.58 734.173 2090.48 803.277 2005.24 803.277C1919.99 803.277 1850.89 734.173 1850.89 648.929Z" fill="#ffcc7d" fill-rule="nonzero" opacity="1" stroke="none"></path> <path d="M2206.47 993.312C2206.47 960.054 2233.43 933.093 2266.69 933.093C2299.95 933.093 2326.91 960.054 2326.91 993.312C2326.91 1026.57 2299.95 1053.53 2266.69 1053.53C2233.43 1053.53 2206.47 1026.57 2206.47 993.312Z" fill="#ffcc7d" fill-rule="nonzero" opacity="1" stroke="none"></path> <path d="M1685.13 998.235C1685.13 964.977 1712.09 938.016 1745.35 938.016C1778.6 938.016 1805.56 964.977 1805.56 998.235C1805.56 1031.49 1778.6 1058.45 1745.35 1058.45C1712.09 1058.45 1685.13 1031.49 1685.13 998.235Z" fill="#ffcc7d" fill-rule="nonzero" opacity="1" stroke="none"></path> <path d="M1925.24 622.485C1925.24 602.745 1933.35 586.743 1943.35 586.743C1953.35 586.743 1961.46 602.745 1961.46 622.485C1961.46 642.225 1953.35 658.227 1943.35 658.227C1933.35 658.227 1925.24 642.225 1925.24 622.485Z" fill="#000000" fill-rule="nonzero" opacity="1" stroke="none"></path> <path d="M2042.77 622.485C2042.77 602.745 2050.88 586.743 2060.88 586.743C2070.88 586.743 2078.98 602.745 2078.98 622.485C2078.98 642.225 2070.88 658.227 2060.88 658.227C2050.88 658.227 2042.77 642.225 2042.77 622.485Z" fill="#000000" fill-rule="nonzero" opacity="1" stroke="none"></path> </g> </svg>
