<svg stroke-miterlimit="10" style="fill-rule:nonzero;clip-rule:evenodd;stroke-linecap:round;stroke-linejoin:round;" version="1.1" xml:space="preserve" xmlns="http://www.w3.org/2000/svg" xmlns:xlink="http://www.w3.org/1999/xlink" viewBox="2416.78 1020.02 641.79 891.82"> <defs></defs> <g id="Layer-3"> <path d="M2734.61 1020.02C2639.82 1020.02 2562.99 1084.7 2562.99 1164.5L2562.99 1290.55C2562.99 1304.95 2574.66 1316.63 2589.06 1316.63L2880.16 1316.63C2894.56 1316.63 2906.23 1304.95 2906.23 1290.55L2906.23 1164.5C2906.23 1084.7 2829.39 1020.02 2734.61 1020.02Z" fill="#121211" fill-rule="nonzero" opacity="1" stroke="none"></path> <path d="M2740.04 1369.43C2640.58 1369.43 2559.96 1450.05 2559.96 1549.51L2559.96 1909.66L2920.12 1909.66L2920.12 1549.51C2920.12 1450.05 2839.49 1369.43 2740.04 1369.43Z" fill="#ffcc7d" fill-rule="nonzero" opacity="1" stroke="none"></path> <path d="M2637.99 1401.12C2593.16 1422.56 2559.96 1495.21 2559.96 1549.07L2559.96 1911.84L2920.12 1911.84L2920.12 1559.43L2637.99 1401.12Z" fill="#69acac" fill-rule="nonzero" opacity="1" stroke="none"></path> <path d="M2829.74 1393.33L2559.96 1560.41L2559.96 1910.98L2920.12 1910.98L2920.12 1549.11C2920.12 1493.7 2886.58 1421.77 2829.74 1393.33Z" fill="#1bdbdb" fill-rule="nonzero" opacity="1" stroke="none"></path> <path d="M2582.54 1196.18C2582.54 1110.94 2651.65 1041.83 2736.89 1041.83C2822.13 1041.83 2891.24 1110.94 2891.24 1196.18C2891.24 1281.42 2822.13 1350.53 2736.89 1350.53C2651.65 1350.53 2582.54 1281.42 2582.54 1196.18Z" fill="#f2c580" fill-rule="nonzero" opacity="1" stroke="none"></path> <path d="M2938.13 1540.56C2938.13 1507.31 2965.09 1480.34 2998.35 1480.34C3031.61 1480.34 3058.57 1507.31 3058.57 1540.56C3058.57 1573.82 3031.61 1600.78 2998.35 1600.78C2965.09 1600.78 2938.13 1573.82 2938.13 1540.56Z" fill="#ffcc7d" fill-rule="nonzero" opacity="1" stroke="none"></path> <path d="M2416.78 1545.49C2416.78 1512.23 2443.74 1485.27 2477 1485.27C2510.26 1485.27 2537.22 1512.23 2537.22 1545.49C2537.22 1578.74 2510.26 1605.71 2477 1605.71C2443.74 1605.71 2416.78 1578.74 2416.78 1545.49Z" fill="#ffcc7d" fill-rule="nonzero" opacity="1" stroke="none"></path> <path d="M2656.9 1169.74C2656.9 1150 2665 1133.99 2675 1133.99C2685 1133.99 2693.11 1150 2693.11 1169.74C2693.11 1189.48 2685 1205.48 2675 1205.48C2665 1205.48 2656.9 1189.48 2656.9 1169.74Z" fill="#000000" fill-rule="nonzero" opacity="1" stroke="none"></path> <path d="M2774.43 1169.74C2774.43 1150 2782.53 1133.99 2792.53 1133.99C2802.53 1133.99 2810.64 1150 2810.64 1169.74C2810.64 1189.48 2802.53 1205.48 2792.53 1205.48C2782.53 1205.48 2774.43 1189.48 2774.43 1169.74Z" fill="#000000" fill-rule="nonzero" opacity="1" stroke="none"></path> </g> </svg>
