<svg xmlns="http://www.w3.org/2000/svg" xmlns:xlink="http://www.w3.org/1999/xlink" stroke-miterlimit="10" style="fill-rule:nonzero;clip-rule:evenodd;stroke-linecap:round;stroke-linejoin:round" version="1.1" viewBox="462.55 1420.21 641.78 891.82" xml:space="preserve"><g id="Layer-5"><path fill="#9d826b" fill-rule="nonzero" stroke="none" d="M780.374 1420.21C685.589 1420.21 608.752 1484.9 608.752 1564.69L608.752 1690.75C608.752 1705.15 620.425 1716.82 634.825 1716.82L925.923 1716.82C940.324 1716.82 951.994 1705.15 951.994 1690.75L951.994 1564.69C951.994 1484.9 875.159 1420.21 780.374 1420.21Z" opacity="1"/><path fill="#ffcc7d" fill-rule="nonzero" stroke="none" d="M785.803 1769.62C686.348 1769.62 605.726 1850.25 605.726 1949.7L605.726 2309.85L965.884 2309.85L965.884 1949.7C965.884 1850.25 885.257 1769.62 785.803 1769.62Z" opacity="1"/><path fill="#a9a1a1" fill-rule="nonzero" stroke="none" d="M683.758 1801.31C638.929 1822.75 605.726 1895.4 605.726 1949.26L605.726 2312.03L965.884 2312.03L965.884 1959.62L683.758 1801.31Z" opacity="1"/><path fill="#e9e9e9" fill-rule="nonzero" stroke="none" d="M875.503 1793.52L605.726 1960.6L605.726 2311.17L965.884 2311.17L965.884 1949.3C965.884 1893.9 932.344 1821.96 875.503 1793.52Z" opacity="1"/><path fill="#ffcc7d" fill-rule="nonzero" stroke="none" d="M628.307 1596.37C628.307 1511.13 697.411 1442.03 782.655 1442.03C867.899 1442.03 937.004 1511.13 937.004 1596.37C937.004 1681.62 867.899 1750.72 782.655 1750.72C697.411 1750.72 628.307 1681.62 628.307 1596.37Z" opacity="1"/><path fill="#ffcc7d" fill-rule="nonzero" stroke="none" d="M983.894 1940.76C983.894 1907.5 1010.85 1880.54 1044.11 1880.54C1077.37 1880.54 1104.33 1907.5 1104.33 1940.76C1104.33 1974.01 1077.37 2000.98 1044.11 2000.98C1010.85 2000.98 983.894 1974.01 983.894 1940.76Z" opacity="1"/><path fill="#ffcc7d" fill-rule="nonzero" stroke="none" d="M462.546 1945.68C462.546 1912.42 489.507 1885.46 522.765 1885.46C556.023 1885.46 582.984 1912.42 582.984 1945.68C582.984 1978.94 556.023 2005.9 522.765 2005.9C489.507 2005.9 462.546 1978.94 462.546 1945.68Z" opacity="1"/><path fill="#000" fill-rule="nonzero" stroke="none" d="M702.662 1569.93C702.662 1550.19 710.768 1534.19 720.768 1534.19C730.768 1534.19 738.875 1550.19 738.875 1569.93C738.875 1589.67 730.768 1605.67 720.768 1605.67C710.768 1605.67 702.662 1589.67 702.662 1569.93Z" opacity="1"/><path fill="#000" fill-rule="nonzero" stroke="none" d="M820.191 1569.93C820.191 1550.19 828.298 1534.19 838.298 1534.19C848.298 1534.19 856.404 1550.19 856.404 1569.93C856.404 1589.67 848.298 1605.67 838.298 1605.67C828.298 1605.67 820.191 1589.67 820.191 1569.93Z" opacity="1"/></g></svg>