<svg xmlns="http://www.w3.org/2000/svg" xmlns:xlink="http://www.w3.org/1999/xlink" stroke-miterlimit="10" style="fill-rule:nonzero;clip-rule:evenodd;stroke-linecap:round;stroke-linejoin:round" version="1.1" viewBox="526.89 124.41 641.79 891.82" xml:space="preserve"><g id="Layer-9"><path fill="#000" fill-rule="nonzero" stroke="none" d="M844.72 124.409C749.935 124.409 673.098 189.094 673.098 268.888L673.098 394.945C673.098 409.345 684.771 421.018 699.171 421.018L990.269 421.018C1004.67 421.018 1016.34 409.345 1016.34 394.945L1016.34 268.888C1016.34 189.094 939.505 124.409 844.72 124.409Z" opacity="1"/><path fill="#ffcc7d" fill-rule="nonzero" stroke="none" d="M850.149 473.822C750.694 473.822 670.072 554.445 670.072 653.899L670.072 1014.05L1030.23 1014.05L1030.23 653.899C1030.23 554.444 949.603 473.822 850.149 473.822Z" opacity="1"/><path fill="#69ac79" fill-rule="nonzero" stroke="none" d="M748.104 505.508C703.275 526.951 670.072 599.602 670.072 653.457L670.072 1016.23L1030.23 1016.23L1030.23 663.819L748.104 505.508Z" opacity="1"/><path fill="#4bcc57" fill-rule="nonzero" stroke="none" d="M939.849 497.718L670.072 664.8L670.072 1015.37L1030.23 1015.37L1030.23 653.501C1030.23 598.093 996.69 526.16 939.849 497.718Z" opacity="1"/><path fill="#ffcc7d" fill-rule="nonzero" stroke="none" d="M692.653 300.571C692.653 215.328 761.757 146.224 847.001 146.224C932.245 146.224 1001.35 215.328 1001.35 300.571C1001.35 385.815 932.245 454.919 847.001 454.919C761.757 454.919 692.653 385.815 692.653 300.571Z" opacity="1"/><path fill="#ffcc7d" fill-rule="nonzero" stroke="none" d="M1048.24 644.954C1048.24 611.696 1075.2 584.735 1108.46 584.735C1141.72 584.735 1168.68 611.696 1168.68 644.954C1168.68 678.212 1141.72 705.173 1108.46 705.173C1075.2 705.173 1048.24 678.212 1048.24 644.954Z" opacity="1"/><path fill="#ffcc7d" fill-rule="nonzero" stroke="none" d="M526.892 649.877C526.892 616.619 553.853 589.658 587.111 589.658C620.369 589.658 647.33 616.619 647.33 649.877C647.33 683.135 620.369 710.096 587.111 710.096C553.853 710.096 526.892 683.135 526.892 649.877Z" opacity="1"/><path fill="#000" fill-rule="nonzero" stroke="none" d="M767.008 274.127C767.008 254.387 775.114 238.385 785.114 238.385C795.114 238.385 803.221 254.387 803.221 274.127C803.221 293.867 795.114 309.869 785.114 309.869C775.114 309.869 767.008 293.867 767.008 274.127Z" opacity="1"/><path fill="#000" fill-rule="nonzero" stroke="none" d="M884.537 274.127C884.537 254.387 892.644 238.385 902.644 238.385C912.644 238.385 920.75 254.387 920.75 274.127C920.75 293.867 912.644 309.869 902.644 309.869C892.644 309.869 884.537 293.867 884.537 274.127Z" opacity="1"/></g></svg>