<svg stroke-miterlimit="10" style="fill-rule:nonzero;clip-rule:evenodd;stroke-linecap:round;stroke-linejoin:round;" version="1.1" xml:space="preserve" xmlns="http://www.w3.org/2000/svg" xmlns:xlink="http://www.w3.org/1999/xlink" viewBox="1202.39 80.77 641.79 891.82"> <defs></defs> <g id="Layer-8"> <path d="M1520.22 80.767C1425.44 80.767 1348.6 145.452 1348.6 225.246L1348.6 351.303C1348.6 365.703 1360.27 377.376 1374.67 377.376L1665.77 377.376C1680.17 377.376 1691.84 365.703 1691.84 351.303L1691.84 225.246C1691.84 145.452 1615.01 80.767 1520.22 80.767Z" fill="#432105" fill-rule="nonzero" opacity="1" stroke="none"></path> <path d="M1525.65 430.18C1426.2 430.18 1345.57 510.803 1345.57 610.257L1345.57 970.408L1705.73 970.408L1705.73 610.257C1705.73 510.802 1625.11 430.18 1525.65 430.18Z" fill="#ffcc7d" fill-rule="nonzero" opacity="1" stroke="none"></path> <path d="M1423.61 461.866C1378.78 483.309 1345.57 555.96 1345.57 609.815L1345.57 972.588L1705.73 972.588L1705.73 620.177L1423.61 461.866Z" fill="#69ac79" fill-rule="nonzero" opacity="1" stroke="none"></path> <path d="M1368.16 256.929C1368.16 171.686 1437.26 102.582 1522.5 102.582C1607.75 102.582 1676.85 171.686 1676.85 256.929C1676.85 342.173 1607.75 411.277 1522.5 411.277C1437.26 411.277 1368.16 342.173 1368.16 256.929Z" fill="#ffcc7d" fill-rule="nonzero" opacity="1" stroke="none"></path> <path d="M1723.74 601.312C1723.74 568.054 1750.7 541.093 1783.96 541.093C1817.22 541.093 1844.18 568.054 1844.18 601.312C1844.18 634.57 1817.22 661.531 1783.96 661.531C1750.7 661.531 1723.74 634.57 1723.74 601.312Z" fill="#ffcc7d" fill-rule="nonzero" opacity="1" stroke="none"></path> <path d="M1202.39 606.235C1202.39 572.977 1229.36 546.016 1262.61 546.016C1295.87 546.016 1322.83 572.977 1322.83 606.235C1322.83 639.493 1295.87 666.454 1262.61 666.454C1229.36 666.454 1202.39 639.493 1202.39 606.235Z" fill="#ffcc7d" fill-rule="nonzero" opacity="1" stroke="none"></path> <path d="M1442.51 230.485C1442.51 210.745 1450.62 194.743 1460.62 194.743C1470.62 194.743 1478.72 210.745 1478.72 230.485C1478.72 250.225 1470.62 266.227 1460.62 266.227C1450.62 266.227 1442.51 250.225 1442.51 230.485Z" fill="#000000" fill-rule="nonzero" opacity="1" stroke="none"></path> <path d="M1560.04 230.485C1560.04 210.745 1568.15 194.743 1578.15 194.743C1588.15 194.743 1596.25 210.745 1596.25 230.485C1596.25 250.225 1588.15 266.227 1578.15 266.227C1568.15 266.227 1560.04 250.225 1560.04 230.485Z" fill="#000000" fill-rule="nonzero" opacity="1" stroke="none"></path> </g> </svg>
