<svg xmlns="http://www.w3.org/2000/svg" xmlns:xlink="http://www.w3.org/1999/xlink" stroke-miterlimit="10" style="fill-rule:nonzero;clip-rule:evenodd;stroke-linecap:round;stroke-linejoin:round;" version="1.1" xml:space="preserve" viewBox="651.47 1266.44 516.86 837.66"><defs><filter color-interpolation-filters="sRGB" filterUnits="userSpaceOnUse" height="161.878" id="Filter" width="161.875" x="806.344" y="1580.29"><feDropShadow dx="-8.12747" dy="7.01457" flood-color="#020202" flood-opacity="0.677928" in="SourceGraphic" result="Shadow" stdDeviation="10.3596"></feDropShadow></filter><clipPath id="TextBounds"><rect height="1" transform="matrix(1 -0 -0 1 -995.264 -2145.82)" width="0" x="995.264" y="2145.82"></rect></clipPath><clipPath id="TextBounds_2"><rect height="1" transform="matrix(1 -0 -0 1 -1225.42 -2205.89)" width="0" x="1225.42" y="2205.89"></rect></clipPath></defs><g id="Layer-1"><path d="M831.551 1266.44C732.096 1266.44 650.884 1331.72 651.474 1405.69C652.064 1479.66 671.747 1571.26 671.747 1571.26C671.747 1586.24 973.105 1585.85 973.105 1570.87C973.105 1570.87 1013.84 1476.18 1011.63 1405.69C1009.42 1335.2 931.005 1266.44 831.551 1266.44Z" fill="#371a01" fill-rule="nonzero" opacity="1" stroke="none"></path><g opacity="1"><path d="M833.431 1615.85C733.977 1615.85 653.354 1688.42 653.354 1777.95L653.354 2102.14L1013.51 2102.14L1013.51 1777.95C1013.51 1688.42 932.886 1615.85 833.431 1615.85Z" fill="#ebc59e" fill-rule="nonzero" opacity="1" stroke="none"></path><path d="M731.386 1644.37C686.557 1663.68 653.354 1729.07 653.354 1777.55L653.354 2104.1L1013.51 2104.1L1013.51 1786.88L731.386 1644.37Z" fill="#8acaff" fill-rule="nonzero" opacity="1" stroke="none"></path><path d="M929.616 1637.52L653.354 1787.76L653.354 2103.32L1013.51 2103.32L1013.51 1777.59C1013.51 1727.71 983.029 1663.84 929.616 1637.52Z" fill="#6367ed" fill-rule="nonzero" opacity="1" stroke="none"></path></g><path d="M675.936 1442.6C675.936 1357.36 745.04 1288.25 830.284 1288.25C915.528 1288.25 984.631 1357.36 984.631 1442.6C984.631 1527.85 915.528 1596.95 830.284 1596.95C745.04 1596.95 675.936 1527.85 675.936 1442.6Z" fill="#ebc59e" fill-rule="nonzero" opacity="1" stroke="none"></path><path d="M1047.89 1643.91C1047.89 1610.65 1074.85 1583.69 1108.11 1583.69C1141.37 1583.69 1168.33 1610.65 1168.33 1643.91C1168.33 1677.17 1141.37 1704.13 1108.11 1704.13C1074.85 1704.13 1047.89 1677.17 1047.89 1643.91Z" fill="#ebc59e" fill-rule="nonzero" opacity="1" stroke="none"></path><path d="M835.191 1654.22C835.191 1620.96 862.152 1594 895.409 1594C928.667 1594 955.628 1620.96 955.628 1654.22C955.628 1687.48 928.667 1714.44 895.409 1714.44C862.152 1714.44 835.191 1687.48 835.191 1654.22Z" fill="#ebc59e" fill-rule="nonzero" filter="url(#Filter)" stroke="none"></path><path d="M807.299 1426.12C807.299 1410.58 815.405 1397.98 825.405 1397.98C835.405 1397.98 843.511 1410.58 843.511 1426.12C843.511 1441.65 835.405 1454.25 825.405 1454.25C815.405 1454.25 807.299 1441.65 807.299 1426.12Z" fill="#000000" fill-rule="nonzero" opacity="1" stroke="none"></path><path d="M901.019 1425.78C901.019 1410.24 909.126 1397.64 919.125 1397.64C929.125 1397.64 937.232 1410.24 937.232 1425.78C937.232 1441.31 929.125 1453.91 919.125 1453.91C909.126 1453.91 901.019 1441.31 901.019 1425.78Z" fill="#000000" fill-rule="nonzero" opacity="1" stroke="none"></path><g opacity="1"></g><text clip-path="url(#TextBounds)" fill="#000000" font-family="Helvetica" font-size="24" opacity="1" stroke="none" text-anchor="start" transform="matrix(1 0 0 1 995.264 2145.82)" x="0" y="0"></text><text clip-path="url(#TextBounds_2)" fill="#000000" font-family="Helvetica" font-size="24" opacity="1" stroke="none" text-anchor="start" transform="matrix(1 0 0 1 1225.42 2205.89)" x="0" y="0"></text><path d="M682.326 1357.22C682.326 1357.22 707.127 1383.68 730.801 1391.04C754.916 1398.53 783.088 1350.17 783.088 1350.17C783.088 1350.17 821.336 1390.14 837.846 1393.79C854.357 1397.44 849.131 1364.77 849.131 1364.77C849.131 1364.77 857.248 1360.76 874.446 1366.97C891.644 1373.18 983.629 1413.81 983.629 1413.81L980.257 1383.39L978.522 1369.82L915.687 1298.74L839.501 1274.99L788.265 1282.91L741.636 1300.13L702.932 1327.94L682.326 1357.22Z" fill="#371a01" fill-rule="nonzero" opacity="1" stroke="none"></path></g></svg>
