<svg xmlns="http://www.w3.org/2000/svg" xmlns:xlink="http://www.w3.org/1999/xlink" stroke-miterlimit="10" style="fill-rule:nonzero;clip-rule:evenodd;stroke-linecap:round;stroke-linejoin:round" version="1.1" viewBox="1287.38 1050.36 787.23 431.59" xml:space="preserve"><defs><filter id="Filter" width="350.185" height="350.18" x="1297.88" y="1066.34" color-interpolation-filters="sRGB" filterUnits="userSpaceOnUse"><feDropShadow dx="8.998" dy="5.305" flood-color="#020202" flood-opacity=".678" in="SourceGraphic" result="Shadow" stdDeviation="10.36"/></filter><filter id="Filter_2" width="139.974" height="139.974" x="1601.23" y="1353.45" color-interpolation-filters="sRGB" filterUnits="userSpaceOnUse"><feDropShadow dx=".035" dy="1.712" flood-color="#020202" flood-opacity=".678" in="SourceGraphic" result="Shadow" stdDeviation="4.88"/></filter><clipPath id="TextBounds"><rect width="185.887" height="130.627" x="1392.19" y="1213.83"/></clipPath><clipPath id="TextBounds_2"><rect width="208.56" height="167.583" x="1410.77" y="1067.45"/></clipPath></defs><g id="Layer-2"><path fill="#371a01" fill-rule="nonzero" stroke="none" d="M1290.3 1206.56C1274.32 1304.73 1325.7 1395.37 1398.8 1406.68C1471.91 1417.98 1565.48 1413.28 1565.48 1413.28C1580.26 1415.69 1628.31 1118.18 1613.53 1115.78C1613.53 1115.78 1526.62 1060.36 1456.68 1051.2C1386.75 1042.05 1306.29 1108.4 1290.3 1206.56Z" opacity="1"/><path fill="#ebc59e" fill-rule="nonzero" stroke="none" d="M1568.34 1234.79C1556.46 1333.53 1618.88 1422.24 1707.77 1432.94L2029.64 1471.66L2072.66 1114.08L1750.79 1075.36C1661.9 1064.67 1580.22 1136.04 1568.34 1234.79Z" opacity="1"/><path fill="#8acaff" fill-rule="nonzero" stroke="none" d="M1584.47 1339.51C1598.29 1386.32 1659.24 1427.1 1707.38 1432.89L2031.59 1471.9L2074.61 1114.32L1759.66 1076.43L1584.47 1339.51Z" opacity="1"/><path fill="#6367ed" fill-rule="nonzero" stroke="none" d="M1597.8 1140.41L1717.51 1434.11L2030.81 1471.8L2073.83 1114.22L1750.44 1075.32C1700.91 1069.36 1630.31 1090.53 1597.8 1140.41Z" opacity="1"/><path fill="#ebc59e" fill-rule="nonzero" stroke="none" d="M1439.16 1388.47C1355.03 1374.77 1297.93 1295.46 1311.63 1211.32C1325.33 1127.18 1404.64 1070.09 1488.78 1083.78C1572.92 1097.49 1630.01 1176.8 1616.31 1260.93C1602.61 1345.07 1523.31 1402.17 1439.16 1388.47Z" filter="url(#Filter)"/><path fill="#ebc59e" fill-rule="nonzero" stroke="none" d="M1621.44 1455.67C1602.69 1428.19 1609.76 1390.73 1637.24 1371.98C1664.71 1353.23 1702.18 1360.31 1720.92 1387.78C1739.67 1415.25 1732.6 1452.72 1705.12 1471.47C1677.65 1490.21 1640.18 1483.14 1621.44 1455.67Z" filter="url(#Filter_2)"/><path fill="#371a01" fill-rule="nonzero" stroke="none" d="M1355.92 1368.44C1355.92 1368.44 1386.03 1348.21 1397.09 1326.03C1408.36 1303.43 1365.15 1267.85 1365.15 1267.85C1365.15 1267.85 1410.76 1236.53 1417.01 1220.82C1423.27 1205.11 1390.18 1205.01 1390.18 1205.01C1390.18 1205.01 1387.53 1196.36 1396.42 1180.38C1405.31 1164.41 1460.2 1080.15 1460.2 1080.15L1429.63 1078.59L1415.96 1078.12L1335.7 1128.71L1300.02 1200.09L1299.6 1251.93L1309.1 1300.72L1330.34 1343.4L1355.92 1368.44Z" opacity="1"/><path fill="#000" stroke="none" d="M1477.8 1328.05L1477.56 1338.91L1443.99 1314.35L1411.09 1335.96L1411.34 1324.69L1437.15 1308.27L1412.08 1290.87L1412.32 1280.14L1444.24 1303.17L1478.84 1280.52L1478.6 1291.7L1450.86 1309.03L1477.8 1328.05Z" clip-path="url(#TextBounds)" opacity="1"/><path fill="#000" stroke="none" d="M1496.99 1197.27L1494.33 1207.81L1467.1 1176.38L1430.2 1190.09L1432.96 1179.16L1461.78 1168.92L1441.23 1146.37L1443.85 1135.96L1469.83 1165.53L1508.62 1151.17L1505.88 1162.02L1474.98 1172.72L1496.99 1197.27Z" clip-path="url(#TextBounds_2)" opacity="1"/></g></svg>