<svg xmlns="http://www.w3.org/2000/svg" xmlns:xlink="http://www.w3.org/1999/xlink" stroke-miterlimit="10" style="fill-rule:nonzero;clip-rule:evenodd;stroke-linecap:round;stroke-linejoin:round" version="1.1" viewBox="1515.75 1095.49 641.79 903.81" xml:space="preserve"><g id="Layer-4"><path fill="#ebc59e" fill-rule="nonzero" stroke="none" d="M1839.01 1456.9C1739.56 1456.9 1658.93 1537.52 1658.93 1636.97L1658.93 1997.12L2019.09 1997.12L2019.09 1636.97C2019.09 1537.52 1938.47 1456.9 1839.01 1456.9Z" opacity="1"/><path fill="#8acaff" fill-rule="nonzero" stroke="none" d="M1736.97 1488.58C1692.14 1510.03 1658.93 1582.68 1658.93 1636.53L1658.93 1999.3L2019.09 1999.3L2019.09 1646.89L1736.97 1488.58Z" opacity="1"/><path fill="#6367ed" fill-rule="nonzero" stroke="none" d="M1928.71 1480.79L1658.93 1647.87L1658.93 1998.44L2019.09 1998.44L2019.09 1636.58C2019.09 1581.17 1985.55 1509.23 1928.71 1480.79Z" opacity="1"/><path fill="#ebc59e" fill-rule="nonzero" stroke="none" d="M2037.1 1628.03C2037.1 1594.77 2064.06 1567.81 2097.32 1567.81C2130.58 1567.81 2157.54 1594.77 2157.54 1628.03C2157.54 1661.29 2130.58 1688.25 2097.32 1688.25C2064.06 1688.25 2037.1 1661.29 2037.1 1628.03Z" opacity="1"/><path fill="#ebc59e" fill-rule="nonzero" stroke="none" d="M1515.75 1632.95C1515.75 1599.69 1542.72 1572.73 1575.97 1572.73C1609.23 1572.73 1636.19 1599.69 1636.19 1632.95C1636.19 1666.21 1609.23 1693.17 1575.97 1693.17C1542.72 1693.17 1515.75 1666.21 1515.75 1632.95Z" opacity="1"/><path fill="#371a01" fill-rule="nonzero" stroke="none" d="M1836.15 1095.49C1736.7 1095.49 1655.49 1160.77 1656.08 1234.74C1656.67 1308.71 1676.35 1400.31 1676.35 1400.31C1676.35 1415.29 1977.71 1414.9 1977.71 1399.92C1977.71 1399.92 2018.44 1305.23 2016.23 1234.74C2014.03 1164.24 1935.61 1095.49 1836.15 1095.49Z" opacity="1"/><path fill="#ebc59e" fill-rule="nonzero" stroke="none" d="M1680.54 1271.65C1680.54 1186.41 1749.64 1117.3 1834.89 1117.3C1920.13 1117.3 1989.23 1186.41 1989.23 1271.65C1989.23 1356.9 1920.13 1426 1834.89 1426C1749.64 1426 1680.54 1356.9 1680.54 1271.65Z" opacity="1"/><path fill="#371a01" fill-rule="nonzero" stroke="none" d="M1686.93 1186.27C1686.93 1186.27 1711.73 1212.73 1735.4 1220.09C1759.52 1227.58 1787.69 1179.21 1787.69 1179.21C1787.69 1179.21 1825.94 1219.19 1842.45 1222.84C1858.96 1226.49 1853.73 1193.81 1853.73 1193.81C1853.73 1193.81 1861.85 1189.81 1879.05 1196.02C1896.25 1202.22 1988.23 1242.86 1988.23 1242.86L1984.86 1212.44L1983.13 1198.86L1920.29 1127.78L1844.1 1104.04L1792.87 1111.96L1746.24 1129.17L1707.54 1156.99L1686.93 1186.27Z" opacity="1"/><path fill="#000" fill-rule="nonzero" stroke="none" d="M1755.02 1276.24C1755.02 1256.5 1763.13 1240.5 1773.13 1240.5C1783.13 1240.5 1791.24 1256.5 1791.24 1276.24C1791.24 1295.98 1783.13 1311.99 1773.13 1311.99C1763.13 1311.99 1755.02 1295.98 1755.02 1276.24Z" opacity="1"/><path fill="#000" fill-rule="nonzero" stroke="none" d="M1872.55 1276.24C1872.55 1256.5 1880.66 1240.5 1890.66 1240.5C1900.66 1240.5 1908.76 1256.5 1908.76 1276.24C1908.76 1295.98 1900.66 1311.99 1890.66 1311.99C1880.66 1311.99 1872.55 1295.98 1872.55 1276.24Z" opacity="1"/></g></svg>