<svg xmlns="http://www.w3.org/2000/svg" xmlns:xlink="http://www.w3.org/1999/xlink" stroke-miterlimit="10" style="fill-rule:nonzero;clip-rule:evenodd;stroke-linecap:round;stroke-linejoin:round;" version="1.1" xml:space="preserve" viewBox="1287.38 1050.36 787.23 431.59"><defs></defs><g id="Layer-2"><path d="M1290.3 1206.56C1274.32 1304.73 1325.7 1395.37 1398.8 1406.68C1471.91 1417.98 1565.48 1413.28 1565.48 1413.28C1580.26 1415.69 1628.31 1118.18 1613.53 1115.78C1613.53 1115.78 1526.62 1060.36 1456.68 1051.2C1386.75 1042.05 1306.29 1108.4 1290.3 1206.56Z" fill="#371a01" fill-rule="nonzero" opacity="1" stroke="none"></path><path d="M1568.34 1234.79C1556.46 1333.53 1618.88 1422.24 1707.77 1432.94L2029.64 1471.66L2072.66 1114.08L1750.79 1075.36C1661.9 1064.67 1580.22 1136.04 1568.34 1234.79Z" fill="#ebc59e" fill-rule="nonzero" opacity="1" stroke="none"></path><path d="M1584.47 1339.51C1598.29 1386.32 1659.24 1427.1 1707.38 1432.89L2031.59 1471.9L2074.61 1114.32L1759.66 1076.43L1584.47 1339.51Z" fill="#8acaff" fill-rule="nonzero" opacity="1" stroke="none"></path><path d="M1597.8 1140.41L1717.51 1434.11L2030.81 1471.8L2073.83 1114.22L1750.44 1075.32C1700.91 1069.36 1630.31 1090.53 1597.8 1140.41Z" fill="#6367ed" fill-rule="nonzero" opacity="1" stroke="none"></path><path d="M1439.16 1388.47C1355.03 1374.77 1297.93 1295.46 1311.63 1211.32C1325.33 1127.18 1404.64 1070.09 1488.78 1083.78C1572.92 1097.49 1630.01 1176.8 1616.31 1260.93C1602.61 1345.07 1523.31 1402.17 1439.16 1388.47Z" fill="#ebc59e" fill-rule="nonzero" opacity="1" stroke="#000000" stroke-linecap="butt" stroke-linejoin="miter" stroke-width="1.245"></path><path d="M1621.44 1455.67C1602.69 1428.19 1609.76 1390.73 1637.24 1371.98C1664.71 1353.23 1702.18 1360.31 1720.92 1387.78C1739.67 1415.25 1732.6 1452.72 1705.12 1471.47C1677.65 1490.21 1640.18 1483.14 1621.44 1455.67Z" fill="#ebc59e" fill-rule="nonzero" opacity="1" stroke="none"></path><path d="M1355.92 1368.44C1355.92 1368.44 1386.03 1348.21 1397.09 1326.03C1408.36 1303.43 1365.15 1267.85 1365.15 1267.85C1365.15 1267.85 1410.76 1236.53 1417.01 1220.82C1423.27 1205.11 1390.18 1205.01 1390.18 1205.01C1390.18 1205.01 1387.53 1196.36 1396.42 1180.38C1405.31 1164.41 1460.2 1080.15 1460.2 1080.15L1429.63 1078.59L1415.96 1078.12L1335.7 1128.71L1300.02 1200.09L1299.6 1251.93L1309.1 1300.72L1330.34 1343.4L1355.92 1368.44Z" fill="#371a01" fill-rule="nonzero" opacity="1" stroke="none"></path><path d="M1425.36 1283.66C1428.69 1285.07 1433.86 1278.85 1436.24 1277.69C1442.37 1274.68 1448.99 1272.33 1454.98 1269.06C1456.47 1268.25 1457.76 1267.1 1459.3 1266.4C1464.43 1264.06 1470.08 1262.07 1474.92 1259.17C1478.71 1256.89 1482.22 1254.22 1485.66 1251.54C1486.33 1251.01 1492.05 1247.08 1491.4 1248.17" fill="none" opacity="1" stroke="#000000" stroke-linecap="round" stroke-linejoin="miter" stroke-width="1.245"></path><path d="M1423.92 1246.88C1427.93 1251.59 1435.19 1254.05 1440.33 1257.22C1450.92 1263.76 1461.64 1270.16 1472.78 1275.68C1474.18 1276.37 1475.57 1277.07 1477 1277.66C1478.04 1278.09 1479.15 1278.34 1480.2 1278.74C1481.46 1279.22 1482.59 1280.73 1483.9 1280.4C1484.3 1280.3 1484.27 1279.2 1484.28 1279.06" fill="none" opacity="1" stroke="#000000" stroke-linecap="round" stroke-linejoin="miter" stroke-width="1.245"></path><path d="M1434.16 1173.56C1431.93 1174.1 1434.44 1171.99 1434.85 1171.7C1438.48 1169.14 1442.33 1166.86 1446.34 1164.95C1458.27 1159.26 1470.11 1153.06 1481.72 1146.71C1482.98 1146.02 1484.19 1145.24 1485.45 1144.55C1486.86 1143.78 1494.89 1139.84 1496.44 1140.5C1496.8 1140.65 1495.92 1141.11 1495.56 1141.25" fill="none" opacity="1" stroke="#000000" stroke-linecap="round" stroke-linejoin="miter" stroke-width="1.245"></path><path d="M1432.96 1147.47C1434.8 1148.38 1436.66 1148.16 1438.6 1148.74C1441.1 1149.48 1443.61 1150.16 1446.08 1150.98C1457.45 1154.74 1468.44 1159.59 1479.85 1163.25C1483.3 1164.36 1486.49 1165.34 1490.03 1165.98C1490.72 1166.11 1493.58 1166.11 1493.48 1167.35" fill="none" opacity="1" stroke="#000000" stroke-linecap="round" stroke-linejoin="miter" stroke-width="1.245"></path><path d="M1525.29 1071.68" fill="#ebc59e" fill-rule="nonzero" opacity="1" stroke="#000000" stroke-linecap="butt" stroke-linejoin="miter" stroke-width="1.245"></path></g></svg>
