<svg xmlns="http://www.w3.org/2000/svg" xmlns:xlink="http://www.w3.org/1999/xlink" stroke-miterlimit="10" style="fill-rule:nonzero;clip-rule:evenodd;stroke-linecap:round;stroke-linejoin:round" version="1.1" viewBox="1212.51 1242.7 641.79 891.83" xml:space="preserve"><g id="Layer-6"><path fill="#a4380e" fill-rule="nonzero" stroke="none" d="M1530.34 1242.7C1435.56 1242.7 1358.72 1307.39 1358.72 1387.18L1358.72 1513.24C1358.72 1527.64 1370.39 1539.31 1384.79 1539.31L1675.89 1539.31C1690.29 1539.31 1701.96 1527.64 1701.96 1513.24L1701.96 1387.18C1701.96 1307.39 1625.13 1242.7 1530.34 1242.7Z" opacity="1"/><path fill="#ffcc7d" fill-rule="nonzero" stroke="none" d="M1535.77 1592.12C1436.32 1592.12 1355.69 1672.74 1355.69 1772.19L1355.69 2132.35L1715.85 2132.35L1715.85 1772.19C1715.85 1672.74 1635.22 1592.12 1535.77 1592.12Z" opacity="1"/><path fill="#a02891" fill-rule="nonzero" stroke="none" d="M1433.73 1623.8C1388.9 1645.25 1355.69 1717.9 1355.69 1771.75L1355.69 2134.53L1715.85 2134.53L1715.85 1782.11L1433.73 1623.8Z" opacity="1"/><path fill="#ce3ebc" fill-rule="nonzero" stroke="none" d="M1625.47 1616.01L1355.69 1783.1L1355.69 2133.67L1715.85 2133.67L1715.85 1771.8C1715.85 1716.39 1682.31 1644.46 1625.47 1616.01Z" opacity="1"/><path fill="#ffcc7d" fill-rule="nonzero" stroke="none" d="M1378.27 1418.87C1378.27 1333.62 1447.38 1264.52 1532.62 1264.52C1617.87 1264.52 1686.97 1333.62 1686.97 1418.87C1686.97 1504.11 1617.87 1573.21 1532.62 1573.21C1447.38 1573.21 1378.27 1504.11 1378.27 1418.87Z" opacity="1"/><path fill="#ffcc7d" fill-rule="nonzero" stroke="none" d="M1733.86 1763.25C1733.86 1729.99 1760.82 1703.03 1794.08 1703.03C1827.34 1703.03 1854.3 1729.99 1854.3 1763.25C1854.3 1796.51 1827.34 1823.47 1794.08 1823.47C1760.82 1823.47 1733.86 1796.51 1733.86 1763.25Z" opacity="1"/><path fill="#ffcc7d" fill-rule="nonzero" stroke="none" d="M1212.51 1768.17C1212.51 1734.91 1239.47 1707.95 1272.73 1707.95C1305.99 1707.95 1332.95 1734.91 1332.95 1768.17C1332.95 1801.43 1305.99 1828.39 1272.73 1828.39C1239.47 1828.39 1212.51 1801.43 1212.51 1768.17Z" opacity="1"/><path fill="#000" fill-rule="nonzero" stroke="none" d="M1452.63 1392.42C1452.63 1372.68 1460.74 1356.68 1470.74 1356.68C1480.74 1356.68 1488.84 1372.68 1488.84 1392.42C1488.84 1412.16 1480.74 1428.16 1470.74 1428.16C1460.74 1428.16 1452.63 1412.16 1452.63 1392.42Z" opacity="1"/><path fill="#000" fill-rule="nonzero" stroke="none" d="M1570.16 1392.42C1570.16 1372.68 1578.27 1356.68 1588.27 1356.68C1598.27 1356.68 1606.37 1372.68 1606.37 1392.42C1606.37 1412.16 1598.27 1428.16 1588.27 1428.16C1578.27 1428.16 1570.16 1412.16 1570.16 1392.42Z" opacity="1"/></g></svg>