<svg clip-rule="evenodd" stroke-linecap="round" stroke-linejoin="round" stroke-miterlimit="10" version="1.1" viewBox="624.16 221.33 1753.2 1516.9" xml:space="preserve" xmlns="http://www.w3.org/2000/svg" xmlns:vectornator="http://vectornator.io"><defs><filter id="b" x="1439.4" y="232.76" width="742.61" height="875.82" color-interpolation-filters="sRGB" filterUnits="userSpaceOnUse"><feDropShadow dx="0" dy="0" flood-color="#020202" flood-opacity=".68" in="SourceGraphic" result="Shadow" stdDeviation="25"/></filter><filter id="a" x="755.46" y="408.16" width="589.12" height="690.51" color-interpolation-filters="sRGB" filterUnits="userSpaceOnUse"><feDropShadow dx="0" dy="0" flood-color="#020202" flood-opacity=".68" in="SourceGraphic" result="Shadow" stdDeviation="25"/></filter></defs><g vectornator:layerName="Layer 1"><path d="m624.16 1064.6s613.5-79.434 1007.6-65.102c394.13 14.332 745.52-258.63 745.52-258.63s-30.63 891.87-318.17 952.78c-287.53 60.91-682.55 48.12-874.24-14.58-191.68-62.7-560.73-614.47-560.73-614.47z" fill="#c08d11"/><path d="m1764.8 221.33h75.19v1104.8h-75.19v-1104.8z" fill="#d2ab4c"/><path d="m1010.7 399.25h85.99v924.87h-85.99v-924.87z" fill="#d2ab4c"/><path d="m624.5 1065s530.37 240.47 1028.3 189.04 724.5-513.59 724.5-513.59-33.89 897.21-321.42 958.12-682.55 48.12-874.24-14.58c-191.69-62.7-557.15-618.99-557.15-618.99z" fill="#6e4f02"/><path d="m1489.4 282.76s170.04 51.741 330.7 51.741c160.65 0 311.91-51.741 311.91-51.741v723.24s-149.35 52.58-310 52.58c-160.66 0-332.61-52.58-332.61-52.58v-723.24z" fill="#f9f9f9" filter="url(#b)" vectornator:shadowAngle="0.516399" vectornator:shadowColor="#020202" vectornator:shadowOffset="0" vectornator:shadowOpacity="0.68" vectornator:shadowRadius="50"/><path d="m805.46 458.16s129.43 39.382 251.71 39.382 237.41-39.382 237.41-39.382v550.48s-113.68 40.03-235.96 40.03c-122.28 0-253.16-40.03-253.16-40.03v-550.48z" fill="#e9e9e9" filter="url(#a)" vectornator:shadowAngle="0.516399" vectornator:shadowColor="#020202" vectornator:shadowOffset="0" vectornator:shadowOpacity="0.68" vectornator:shadowRadius="50"/></g></svg>
