<?xml version="1.0" encoding="UTF-8" standalone="no"?>
<!DOCTYPE svg PUBLIC "-//W3C//DTD SVG 1.1//EN" "http://www.w3.org/Graphics/SVG/1.1/DTD/svg11.dtd">
<!-- Created with Vectornator (http://vectornator.io/) -->
<svg height="100%" stroke-miterlimit="10" style="fill-rule:nonzero;clip-rule:evenodd;stroke-linecap:round;stroke-linejoin:round;" version="1.1" viewBox="0 175 1024 300" width="100%" xml:space="preserve" xmlns="http://www.w3.org/2000/svg" xmlns:vectornator="http://vectornator.io" xmlns:xlink="http://www.w3.org/1999/xlink">
<defs>
<clipPath id="TextBounds">
<rect height="147.67" width="216.385" x="285.276" y="228.257"/>
</clipPath>
<linearGradient gradientTransform="matrix(0.63732 0 0 0.63732 21.3074 167.218)" gradientUnits="userSpaceOnUse" id="LinearGradient" x1="157.702" x2="491.916" y1="144.377" y2="400.463">
<stop offset="0" stop-color="#fff984"/>
<stop offset="0.659091" stop-color="#fa84ff"/>
<stop offset="1" stop-color="#87ffff"/>
</linearGradient>
<clipPath id="TextBounds_2">
<rect height="147.67" width="291.828" x="261.393" y="319.121"/>
</clipPath>
<linearGradient gradientTransform="matrix(0.63732 0 0 0.63732 -25.0635 194.313)" gradientUnits="userSpaceOnUse" id="LinearGradient_2" x1="449.47" x2="907.368" y1="311.684" y2="311.684">
<stop offset="0" stop-color="#fff984"/>
<stop offset="0.659091" stop-color="#fa84ff"/>
<stop offset="1" stop-color="#87ffff"/>
</linearGradient>
<clipPath id="TextBounds_3">
<rect height="147.67" width="443.739" x="454.347" y="319.121"/>
</clipPath>
</defs>
<g id="Layer-1" vectornator:layerName="Layer 1">
<path d="M263.804 606.719C263.662 607.999 263.52 609.28 263.377 610.561" fill="#000000" fill-rule="nonzero" opacity="1" stroke="none"/>
<g fill="#000000" opacity="1" stroke="none">
<path clip-path="url(#TextBounds)" d="M332.159 319L346.212 319L346.212 263.437L365.641 263.437L365.641 251.85L312.731 251.85L312.731 263.437L332.159 263.437L332.159 319Z"/>
<path clip-path="url(#TextBounds)" d="M372.598 319L386.186 319L386.186 290.451C386.186 288.264 386.593 286.34 387.407 284.68C388.222 283.021 389.37 281.718 390.851 280.771C392.332 279.825 394.066 279.352 396.051 279.352C399.138 279.352 401.511 280.337 403.171 282.307C404.831 284.277 405.661 286.999 405.661 290.474L405.661 319L419.249 319L419.249 287.682C419.249 283.664 418.543 280.194 417.131 277.27C415.72 274.346 413.711 272.085 411.105 270.487C408.499 268.89 405.389 268.091 401.775 268.091C398.037 268.091 394.872 268.925 392.282 270.592C389.691 272.26 387.752 274.644 386.465 277.747L386.186 277.747L386.186 251.85L372.598 251.85L372.598 319Z"/>
<path clip-path="url(#TextBounds)" d="M450.66 320.023C454.212 320.023 457.318 319.558 459.978 318.627C462.638 317.697 464.891 316.456 466.737 314.905C468.583 313.354 470.045 311.651 471.123 309.797C472.201 307.944 472.934 306.102 473.322 304.272L473.438 303.736L460.967 303.736L460.874 304.016C460.564 304.962 459.978 305.885 459.117 306.784C458.256 307.684 457.143 308.425 455.778 309.006C454.413 309.588 452.8 309.879 450.939 309.879C448.581 309.879 446.549 309.359 444.843 308.32C443.136 307.281 441.822 305.784 440.899 303.829C439.976 301.875 439.515 299.525 439.515 296.779L439.515 291.498C439.515 288.659 439.976 286.251 440.899 284.273C441.822 282.295 443.098 280.795 444.726 279.771C446.355 278.747 448.224 278.235 450.334 278.235C452.443 278.235 454.297 278.732 455.895 279.724C457.492 280.717 458.741 282.199 459.641 284.169C460.54 286.138 460.99 288.582 460.99 291.498L460.99 296.733L467.435 288.729L432.79 288.729L432.79 297.291L473.857 297.291L473.857 293.103C473.857 288.077 472.892 283.688 470.96 279.934C469.029 276.18 466.288 273.268 462.735 271.197C459.183 269.126 454.972 268.091 450.101 268.091C445.231 268.091 441 269.157 437.409 271.29C433.818 273.423 431.037 276.436 429.068 280.329C427.098 284.223 426.113 288.814 426.113 294.104L426.113 294.15C426.113 299.455 427.098 304.047 429.068 307.924C431.037 311.802 433.857 314.788 437.525 316.882C441.194 318.976 445.572 320.023 450.66 320.023Z"/>
</g>
<path d="M173.826 198.048C168.278 198.048 162.725 199.494 157.794 202.37L74.7826 251.683C64.9197 257.642 58.75 268.531 58.75 280.243L58.75 378.868C58.75 390.58 64.9197 401.469 74.7826 407.428L157.794 456.761C162.725 459.637 168.278 461.063 173.826 461.062C179.374 461.062 184.907 459.637 189.839 456.761L272.85 407.428C282.713 401.469 288.882 390.58 288.882 378.868L288.882 280.243C288.882 268.531 282.918 257.642 272.85 251.683L189.839 202.37C184.907 199.494 179.374 198.048 173.826 198.048ZM173.826 203.804C178.347 203.804 182.861 205.043 186.971 207.509L269.982 256.821C276.763 260.931 281.495 267.914 282.728 275.722C280.057 269.763 273.688 268.326 266.496 272.436L188.007 321.131C178.144 326.884 170.938 333.252 170.938 345.17L170.938 441.963C170.938 448.949 173.813 453.676 178.128 454.908C176.69 455.114 175.264 455.307 173.826 455.307C169.306 455.307 164.771 453.882 160.661 451.622L77.6505 402.31C69.4315 397.584 64.5058 388.525 64.5058 378.868L64.5058 280.243C64.5058 270.585 69.637 261.547 77.6505 256.821L160.661 207.509C164.566 205.043 169.1 203.804 173.826 203.804ZM242.697 298.108C244.877 297.905 246.421 299.518 246.421 302.429L246.421 327.404L260.163 320.434C263.838 318.568 266.815 320.396 266.815 324.517L266.815 339.055C266.815 343.176 263.838 348.025 260.163 349.89L246.421 356.861L246.421 406.492C246.421 410.374 243.659 415.039 240.267 416.928L227.381 424.118C223.989 426.007 221.247 424.395 221.247 420.513L221.247 369.647L207.485 376.637C203.81 378.503 200.833 376.676 200.833 372.555L200.833 357.996C200.833 353.875 203.81 349.027 207.485 347.161L221.247 340.171L221.247 317.088C221.247 313.205 223.966 308.466 227.321 306.512L240.346 298.944C241.185 298.456 241.97 298.175 242.697 298.108Z" fill="url(#LinearGradient)" fill-rule="nonzero" opacity="1" stroke="none"/>
<g fill="url(#LinearGradient_2)" opacity="1" stroke="none">
<path clip-path="url(#TextBounds_2)" d="M309.13 409.863L323.905 409.863L340.704 355.743L344.985 355.743L344.985 342.714L332.583 342.714L309.13 409.863ZM321.741 393.576L359.946 393.576L356.502 383.059L325.184 383.059L321.741 393.576ZM357.759 409.863L372.533 409.863L349.103 342.714L340.983 342.714L340.983 355.743L357.759 409.863Z"/>
<path clip-path="url(#TextBounds_2)" d="M399.151 410.887C403.603 410.887 407.477 410.046 410.773 408.363C414.07 406.679 416.664 404.395 418.556 401.51C420.449 398.625 421.503 395.368 421.721 391.738L421.744 391.436L409.086 391.436L409.017 391.854C408.567 394.383 407.512 396.411 405.852 397.939C404.193 399.467 401.998 400.231 399.268 400.231C397.034 400.231 395.099 399.633 393.462 398.439C391.826 397.245 390.566 395.507 389.682 393.227C388.797 390.947 388.355 388.186 388.355 384.944L388.355 384.897C388.355 381.718 388.797 378.987 389.682 376.707C390.566 374.427 391.822 372.674 393.451 371.449C395.08 370.223 397.003 369.611 399.221 369.611C402.029 369.611 404.259 370.413 405.91 372.019C407.562 373.624 408.59 375.614 408.993 377.987L409.063 378.406L421.697 378.406L421.674 378.08C421.503 374.481 420.48 371.239 418.603 368.354C416.726 365.469 414.124 363.181 410.797 361.49C407.469 359.8 403.549 358.954 399.035 358.954C394.056 358.954 389.732 360.001 386.063 362.095C382.395 364.189 379.556 367.172 377.548 371.042C375.539 374.912 374.534 379.507 374.534 384.828L374.534 384.874C374.534 390.226 375.531 394.848 377.524 398.741C379.518 402.635 382.356 405.632 386.04 407.734C389.724 409.836 394.095 410.887 399.151 410.887Z"/>
<path clip-path="url(#TextBounds_2)" d="M448.106 410.887C449.517 410.887 450.774 410.833 451.875 410.724C452.976 410.616 453.907 410.499 454.667 410.375L454.667 400.44C454.248 400.487 453.806 400.533 453.341 400.58C452.876 400.626 452.34 400.649 451.736 400.649C449.672 400.649 448.125 400.196 447.094 399.288C446.062 398.381 445.546 396.764 445.546 394.437L445.546 370.216L454.667 370.216L454.667 359.978L445.546 359.978L445.546 347.809L431.819 347.809L431.819 359.978L424.885 359.978L424.885 370.216L431.819 370.216L431.819 395.926C431.819 401.262 433.149 405.09 435.809 407.409C438.469 409.728 442.568 410.887 448.106 410.887Z"/>
<path clip-path="url(#TextBounds_2)" d="M482.635 410.887C486.916 410.887 490.697 410.216 493.977 408.874C497.258 407.533 499.825 405.648 501.679 403.22C503.533 400.793 504.459 397.95 504.459 394.693L504.459 394.646C504.459 390.986 503.319 388.073 501.039 385.91C498.759 383.746 495.005 382.113 489.778 381.012L481.285 379.22C478.788 378.677 477.039 377.975 476.038 377.114C475.038 376.254 474.538 375.187 474.538 373.915L474.538 373.869C474.538 372.783 474.848 371.844 475.468 371.053C476.089 370.262 476.973 369.65 478.121 369.215C479.269 368.781 480.618 368.564 482.169 368.564C484.698 368.564 486.683 369.161 488.126 370.355C489.568 371.55 490.398 373.039 490.615 374.823L490.662 375.195L503.18 375.195L503.156 374.73C503.063 371.813 502.191 369.165 500.539 366.784C498.887 364.403 496.517 362.503 493.431 361.083C490.344 359.664 486.59 358.954 482.169 358.954C477.95 358.954 474.27 359.598 471.129 360.885C467.988 362.173 465.56 363.984 463.846 366.318C462.132 368.653 461.275 371.41 461.275 374.59L461.275 374.636C461.275 378.359 462.497 381.427 464.94 383.839C467.383 386.251 471.016 387.961 475.84 388.969L484.333 390.761C486.768 391.304 488.467 391.982 489.429 392.797C490.39 393.611 490.871 394.685 490.871 396.019L490.871 396.066C490.871 397.136 490.542 398.063 489.882 398.846C489.223 399.629 488.285 400.231 487.067 400.649C485.849 401.068 484.38 401.278 482.658 401.278C479.943 401.278 477.83 400.731 476.317 399.637C474.805 398.544 473.832 397.02 473.397 395.065L473.304 394.646L460.042 394.646L460.089 395.065C460.461 398.214 461.55 400.975 463.358 403.348C465.165 405.722 467.681 407.571 470.908 408.898C474.134 410.224 478.043 410.887 482.635 410.887Z"/>
</g>
<g fill="#000000" opacity="1" stroke="none">
<path clip-path="url(#TextBounds_3)" d="M534.844 388.713L554.76 388.713C559.491 388.713 563.621 387.763 567.15 385.863C570.679 383.963 573.429 381.291 575.399 377.847C577.369 374.404 578.354 370.379 578.354 365.772L578.354 365.679C578.354 361.072 577.369 357.046 575.399 353.603C573.429 350.159 570.679 347.483 567.15 345.576C563.621 343.668 559.491 342.714 554.76 342.714L534.844 342.714L534.844 353.859L551.34 353.859C555.373 353.859 558.51 354.879 560.752 356.918C562.993 358.958 564.114 361.894 564.114 365.725L564.114 365.818C564.114 369.618 562.993 372.55 560.752 374.613C558.51 376.676 555.373 377.708 551.34 377.708L534.844 377.708L534.844 388.713ZM527.794 409.863L541.847 409.863L541.847 342.714L527.794 342.714L527.794 409.863Z"/>
<path clip-path="url(#TextBounds_3)" d="M585.473 409.863L599.061 409.863L599.061 381.942C599.061 379.523 599.476 377.475 600.306 375.8C601.136 374.125 602.346 372.853 603.936 371.984C605.526 371.115 607.438 370.681 609.671 370.681C610.664 370.681 611.595 370.751 612.463 370.89C613.332 371.03 614.046 371.216 614.604 371.449L614.604 359.489C614.092 359.334 613.499 359.206 612.824 359.106C612.149 359.005 611.432 358.954 610.672 358.954C607.771 358.954 605.34 359.807 603.378 361.514C601.415 363.22 600.07 365.609 599.341 368.68L599.061 368.68L599.061 359.978L585.473 359.978L585.473 409.863Z"/>
<path clip-path="url(#TextBounds_3)" d="M641.385 410.887C646.426 410.887 650.793 409.855 654.484 407.792C658.176 405.729 661.034 402.763 663.058 398.893C665.083 395.023 666.095 390.373 666.095 384.944L666.095 384.851C666.095 379.453 665.071 374.823 663.023 370.96C660.976 367.098 658.102 364.131 654.403 362.06C650.703 359.99 646.356 358.954 641.361 358.954C636.398 358.954 632.066 359.994 628.367 362.072C624.667 364.151 621.794 367.125 619.746 370.995C617.699 374.865 616.675 379.484 616.675 384.851L616.675 384.944C616.675 390.342 617.683 394.98 619.7 398.858C621.716 402.736 624.574 405.71 628.274 407.781C631.973 409.852 636.343 410.887 641.385 410.887ZM641.431 400.231C639.198 400.231 637.263 399.633 635.626 398.439C633.99 397.245 632.725 395.507 631.834 393.227C630.942 390.947 630.496 388.186 630.496 384.944L630.496 384.851C630.496 381.624 630.945 378.879 631.845 376.614C632.745 374.35 634.013 372.616 635.649 371.414C637.286 370.212 639.19 369.611 641.361 369.611C643.564 369.611 645.484 370.208 647.12 371.402C648.757 372.597 650.025 374.33 650.924 376.603C651.824 378.875 652.274 381.624 652.274 384.851L652.274 384.944C652.274 388.186 651.832 390.947 650.948 393.227C650.063 395.507 648.811 397.245 647.19 398.439C645.569 399.633 643.649 400.231 641.431 400.231Z"/>
<path clip-path="url(#TextBounds_3)" d="M669.026 426.313C674.89 426.313 679.334 425.01 682.359 422.404C685.383 419.798 686.896 415.967 686.896 410.91L686.896 359.978L673.308 359.978L673.308 410.515C673.308 412.547 672.827 413.97 671.865 414.784C670.903 415.599 669.298 416.006 667.049 416.006C666.738 416.006 666.436 415.998 666.141 415.983C665.846 415.967 665.575 415.952 665.327 415.936L665.327 426.15C665.73 426.197 666.296 426.236 667.025 426.267C667.754 426.298 668.421 426.313 669.026 426.313ZM680.102 353.58C682.149 353.58 683.871 352.882 685.267 351.485C686.663 350.089 687.361 348.43 687.361 346.506C687.361 344.552 686.663 342.884 685.267 341.504C683.871 340.123 682.149 339.433 680.102 339.433C678.07 339.433 676.352 340.123 674.948 341.504C673.544 342.884 672.842 344.552 672.842 346.506C672.842 348.43 673.544 350.089 674.948 351.485C676.352 352.882 678.07 353.58 680.102 353.58Z"/>
<path clip-path="url(#TextBounds_3)" d="M718.702 410.887C722.254 410.887 725.36 410.422 728.021 409.491C730.681 408.56 732.934 407.319 734.78 405.768C736.626 404.217 738.088 402.515 739.166 400.661C740.244 398.807 740.977 396.965 741.365 395.135L741.481 394.6L729.01 394.6L728.917 394.879C728.606 395.825 728.021 396.748 727.16 397.648C726.299 398.548 725.186 399.288 723.821 399.87C722.456 400.452 720.843 400.742 718.981 400.742C716.624 400.742 714.592 400.223 712.885 399.184C711.179 398.144 709.864 396.647 708.942 394.693C708.019 392.738 707.557 390.388 707.557 387.643L707.557 382.361C707.557 379.523 708.019 377.114 708.942 375.137C709.864 373.159 711.14 371.658 712.769 370.634C714.398 369.611 716.267 369.099 718.376 369.099C720.486 369.099 722.34 369.595 723.937 370.588C725.535 371.581 726.784 373.062 727.683 375.032C728.583 377.002 729.033 379.445 729.033 382.361L729.033 387.596L735.478 379.592L700.833 379.592L700.833 388.155L741.9 388.155L741.9 383.967C741.9 378.941 740.934 374.551 739.003 370.797C737.072 367.044 734.33 364.131 730.778 362.06C727.226 359.99 723.014 358.954 718.144 358.954C713.273 358.954 709.042 360.021 705.451 362.154C701.86 364.286 699.08 367.3 697.11 371.193C695.14 375.086 694.155 379.678 694.155 384.967L694.155 385.014C694.155 390.319 695.14 394.91 697.11 398.788C699.08 402.666 701.899 405.652 705.568 407.746C709.236 409.84 713.614 410.887 718.702 410.887Z"/>
<path clip-path="url(#TextBounds_3)" d="M771.659 410.887C776.11 410.887 779.984 410.046 783.281 408.363C786.577 406.679 789.171 404.395 791.064 401.51C792.956 398.625 794.011 395.368 794.228 391.738L794.251 391.436L781.594 391.436L781.524 391.854C781.074 394.383 780.019 396.411 778.36 397.939C776.7 399.467 774.505 400.231 771.775 400.231C769.541 400.231 767.606 399.633 765.97 398.439C764.333 397.245 763.073 395.507 762.189 393.227C761.305 390.947 760.863 388.186 760.863 384.944L760.863 384.897C760.863 381.718 761.305 378.987 762.189 376.707C763.073 374.427 764.329 372.674 765.958 371.449C767.587 370.223 769.51 369.611 771.728 369.611C774.536 369.611 776.766 370.413 778.418 372.019C780.07 373.624 781.097 375.614 781.501 377.987L781.571 378.406L794.205 378.406L794.181 378.08C794.011 374.481 792.987 371.239 791.11 368.354C789.233 365.469 786.631 363.181 783.304 361.49C779.977 359.8 776.056 358.954 771.542 358.954C766.563 358.954 762.239 360.001 758.571 362.095C754.902 364.189 752.064 367.172 750.055 371.042C748.046 374.912 747.042 379.507 747.042 384.828L747.042 384.874C747.042 390.226 748.038 394.848 750.032 398.741C752.025 402.635 754.863 405.632 758.547 407.734C762.231 409.836 766.602 410.887 771.659 410.887Z"/>
<path clip-path="url(#TextBounds_3)" d="M820.613 410.887C822.025 410.887 823.281 410.833 824.382 410.724C825.484 410.616 826.414 410.499 827.175 410.375L827.175 400.44C826.756 400.487 826.314 400.533 825.848 400.58C825.383 400.626 824.848 400.649 824.243 400.649C822.18 400.649 820.633 400.196 819.601 399.288C818.569 398.381 818.054 396.764 818.054 394.437L818.054 370.216L827.175 370.216L827.175 359.978L818.054 359.978L818.054 347.809L804.326 347.809L804.326 359.978L797.392 359.978L797.392 370.216L804.326 370.216L804.326 395.926C804.326 401.262 805.656 405.09 808.316 407.409C810.977 409.728 815.076 410.887 820.613 410.887Z"/>
</g>
</g>
</svg>
