<svg xmlns="http://www.w3.org/2000/svg" xmlns:vectornator="http://vectornator.io" xmlns:xlink="http://www.w3.org/1999/xlink" height="100%" stroke-miterlimit="10" style="fill-rule:nonzero;clip-rule:evenodd;stroke-linecap:round;stroke-linejoin:round" width="100%" version="1.1" viewBox="0 0 601.839 422.851" xml:space="preserve"><g id="Layer-1" vectornator:layerName="Layer 1"><path fill="#c5834b" fill-rule="nonzero" stroke="#723500" stroke-linecap="butt" stroke-linejoin="round" stroke-width="10" d="M407.878 346.092L274.441 350.497C249.65 351.315 210.823 342.403 187.719 330.59L161.664 317.269C138.56 305.457 104.766 278.426 86.1833 256.894L60.6484 227.307C42.0657 205.775 45.944 179.493 69.3108 168.605L81.8847 162.745C105.251 151.857 142.182 131.259 164.37 116.739L246.511 62.9862C268.7 48.4661 304.437 49.0722 326.332 64.3401L326.411 64.3954C348.306 79.6632 386.159 92.0402 410.957 92.0402L430.182 92.0402C454.98 92.0402 486.283 113.931 500.097 140.935L505.009 150.537C518.824 177.541 518.519 221.049 504.329 247.715L478.46 296.327C464.27 322.993 432.669 345.274 407.878 346.092Z" opacity="1"/><path fill="#f49a4c" fill-rule="nonzero" stroke="none" d="M429.983 132.321C445.613 95.411 469.048 70.0477 482.325 75.6704C495.603 81.293 493.696 115.772 478.066 152.682C462.436 189.592 439.002 214.955 425.724 209.333C412.447 203.71 414.353 169.231 429.983 132.321Z" opacity="1"/><path fill="#f49a4c" fill-rule="nonzero" stroke="none" d="M315.813 157.408C300.45 120.386 298.791 85.8941 312.109 80.3672C325.427 74.8403 348.678 100.372 364.042 137.393C379.406 174.414 381.064 208.906 367.746 214.433C354.428 219.96 331.177 194.429 315.813 157.408Z" opacity="1"/><path fill="#ffdbbc" fill-rule="nonzero" stroke="none" d="M331.802 171.973C318.111 142.949 313.551 114.894 321.617 109.311C329.682 103.727 347.319 122.73 361.01 151.755C374.7 180.779 379.261 208.834 371.195 214.417C363.13 220.001 345.493 200.998 331.802 171.973Z" opacity="1"/><path fill="#ffdbbc" fill-rule="nonzero" stroke="none" d="M461.367 168.464C474.93 139.572 479.855 111.581 472.367 105.945C464.879 100.308 447.814 119.16 434.251 148.052C420.689 176.944 415.764 204.935 423.252 210.572C430.74 216.209 447.805 197.357 461.367 168.464Z" opacity="1"/><g opacity="1"><path fill="#ff9dde" fill-rule="nonzero" stroke="none" d="M271.394 124.978L283.581 79.8162C286.186 67.8414 279.025 61.8137 267.585 66.3531L224.629 87.1287L271.394 124.978Z" opacity="1"/><path fill="#ff9dde" fill-rule="nonzero" stroke="none" d="M156.106 87.2916L113.374 66.516C101.993 61.9767 94.8693 68.0043 97.4614 79.9791L109.585 125.141L156.106 87.2916Z" opacity="1"/><path fill="#ffbbe8" fill-rule="nonzero" stroke="none" d="M93.2455 172.671C93.2455 118.499 137.16 74.5844 191.332 74.5844C245.504 74.5844 289.418 118.499 289.418 172.671C289.418 226.843 245.504 270.757 191.332 270.757C137.16 270.757 93.2455 226.843 93.2455 172.671Z" opacity="1"/><path fill="#000" fill-rule="nonzero" stroke="none" d="M145.713 141.284C145.713 129.793 150.241 120.477 155.827 120.477C161.413 120.477 165.942 129.793 165.942 141.284C165.942 152.776 161.413 162.091 155.827 162.091C150.241 162.091 145.713 152.776 145.713 141.284Z" opacity="1"/><path fill="#000" fill-rule="nonzero" stroke="none" d="M211.088 140.638C211.088 129.146 215.616 119.831 221.202 119.831C226.788 119.831 231.317 129.146 231.317 140.638C231.317 152.129 226.788 161.445 221.202 161.445C215.616 161.445 211.088 152.129 211.088 140.638Z" opacity="1"/><path fill="#e370bc" fill-rule="nonzero" stroke="none" d="M124.481 208.504C124.481 187.525 153.476 170.518 189.243 170.518C225.01 170.518 254.005 187.525 254.005 208.504C254.005 229.483 225.01 246.49 189.243 246.49C153.476 246.49 124.481 229.483 124.481 208.504Z" opacity="1"/><path fill="#980065" fill-rule="nonzero" stroke="none" d="M163.824 203.318C163.824 196.116 166.775 190.278 170.416 190.278C174.057 190.278 177.008 196.116 177.008 203.318C177.008 210.52 174.057 216.358 170.416 216.358C166.775 216.358 163.824 210.52 163.824 203.318Z" opacity="1"/><path fill="#980065" fill-rule="nonzero" stroke="none" d="M198.969 203.226C198.969 196.024 201.92 190.186 205.561 190.186C209.202 190.186 212.153 196.024 212.153 203.226C212.153 210.427 209.202 216.265 205.561 216.265C201.92 216.265 198.969 210.427 198.969 203.226Z" opacity="1"/></g><path fill="#ffcda2" fill-rule="nonzero" stroke="none" d="M327.674 256.472C327.674 216.389 360.168 183.895 400.25 183.895C440.333 183.895 472.827 216.389 472.827 256.472C472.827 296.555 440.333 329.048 400.25 329.048C360.168 329.048 327.674 296.555 327.674 256.472Z" opacity="1"/><path fill="#000" fill-rule="nonzero" stroke="none" d="M358.62 238.95C358.62 227.842 362.886 218.837 368.149 218.837C373.412 218.837 377.678 227.842 377.678 238.95C377.678 250.058 373.412 259.063 368.149 259.063C362.886 259.063 358.62 250.058 358.62 238.95Z" opacity="1"/><path fill="#000" fill-rule="nonzero" stroke="none" d="M420.212 238.325C420.212 227.217 424.479 218.212 429.741 218.212C435.004 218.212 439.271 227.217 439.271 238.325C439.271 249.433 435.004 258.438 429.741 258.438C424.479 258.438 420.212 249.433 420.212 238.325Z" opacity="1"/><path fill="#000" fill-rule="nonzero" stroke="none" d="M395.407 277.498L391.604 270.911C389.644 267.516 391.233 264.764 395.152 264.764L402.758 264.764C406.678 264.764 408.267 267.516 406.307 270.911L402.504 277.498C400.544 280.892 397.367 280.892 395.407 277.498Z" opacity="1"/></g></svg>