<?xml version="1.0" encoding="UTF-8" standalone="no"?>
<!DOCTYPE svg PUBLIC "-//W3C//DTD SVG 1.1//EN" "http://www.w3.org/Graphics/SVG/1.1/DTD/svg11.dtd">
<!-- Created with Vectornator (http://vectornator.io/) -->
<svg height="100%" stroke-miterlimit="10" style="fill-rule:nonzero;clip-rule:evenodd;stroke-linecap:round;stroke-linejoin:round;" version="1.1" viewBox="0 0 955.341 775.577" width="100%" xml:space="preserve" xmlns="http://www.w3.org/2000/svg" xmlns:vectornator="http://vectornator.io" xmlns:xlink="http://www.w3.org/1999/xlink">
<defs/>
<g id="Layer-1" vectornator:layerName="Layer 1">
<path d="M178.34 104.947L205.081 104.947C205.384 104.947 205.629 229.999 205.629 384.26L205.629 384.26C205.629 538.52 205.384 663.572 205.081 663.572L178.34 663.572C178.038 663.572 177.793 538.52 177.793 384.26L177.793 384.26C177.793 229.999 178.038 104.947 178.34 104.947Z" fill="#c7c7c7" fill-rule="nonzero" opacity="1" stroke="none"/>
<path d="M302.266 101.357L329.007 101.357C329.31 101.357 329.555 226.41 329.555 380.67L329.555 380.67C329.555 534.93 329.31 659.982 329.007 659.982L302.266 659.982C301.964 659.982 301.719 534.93 301.719 380.67L301.719 380.67C301.719 226.41 301.964 101.357 302.266 101.357Z" fill="#c7c7c7" fill-rule="nonzero" opacity="1" stroke="none"/>
<path d="M425.426 103.245L452.168 103.245C452.47 103.245 452.715 228.297 452.715 382.557L452.715 382.557C452.715 536.817 452.47 661.87 452.168 661.87L425.426 661.87C425.124 661.87 424.879 536.817 424.879 382.557L424.879 382.557C424.879 228.297 425.124 103.245 425.426 103.245Z" fill="#c7c7c7" fill-rule="nonzero" opacity="1" stroke="none"/>
<path d="M523.234 99.8181L549.976 99.8181C550.278 99.8181 550.523 224.871 550.523 379.131L550.523 379.131C550.523 533.391 550.278 658.443 549.976 658.443L523.234 658.443C522.932 658.443 522.687 533.391 522.687 379.131L522.687 379.131C522.687 224.871 522.932 99.8181 523.234 99.8181Z" fill="#c7c7c7" fill-rule="nonzero" opacity="1" stroke="none"/>
<path d="M637.54 98.1817L664.282 98.1817C664.584 98.1817 664.829 223.234 664.829 377.494L664.829 377.494C664.829 531.754 664.584 656.807 664.282 656.807L637.54 656.807C637.238 656.807 636.993 531.754 636.993 377.494L636.993 377.494C636.993 223.234 637.238 98.1817 637.54 98.1817Z" fill="#c7c7c7" fill-rule="nonzero" opacity="1" stroke="none"/>
<path d="M748.858 103.12L775.599 103.12C775.901 103.12 776.146 228.172 776.146 382.432L776.146 382.432C776.146 536.692 775.901 661.745 775.599 661.745L748.858 661.745C748.555 661.745 748.31 536.692 748.31 382.432L748.31 382.432C748.31 228.172 748.555 103.12 748.858 103.12Z" fill="#c7c7c7" fill-rule="nonzero" opacity="1" stroke="none"/>
<path d="M148.798 93.2726L790.438 93.2726C797.691 93.2726 803.571 99.1524 803.571 106.406L803.571 106.406C803.571 113.659 797.691 119.538 790.438 119.538L148.798 119.538C141.544 119.538 135.665 113.659 135.665 106.406L135.665 106.406C135.665 99.1524 141.544 93.2726 148.798 93.2726Z" fill="#646464" fill-rule="nonzero" opacity="1" stroke="none"/>
<path d="M148.303 651.881L789.944 651.881C797.197 651.881 803.077 657.761 803.077 665.014L803.077 665.014C803.077 672.267 797.197 678.147 789.944 678.147L148.303 678.147C141.05 678.147 135.17 672.267 135.17 665.014L135.17 665.014C135.17 657.761 141.05 651.881 148.303 651.881Z" fill="#646464" fill-rule="nonzero" opacity="1" stroke="none"/>
</g>
</svg>
