<?xml version="1.0" encoding="UTF-8" standalone="no"?>
<!DOCTYPE svg PUBLIC "-//W3C//DTD SVG 1.1//EN" "http://www.w3.org/Graphics/SVG/1.1/DTD/svg11.dtd">
<!-- Created with Vectornator (http://vectornator.io/) -->
<svg height="100%" stroke-miterlimit="10" style="fill-rule:nonzero;clip-rule:evenodd;stroke-linecap:round;stroke-linejoin:round;" version="1.1" viewBox="0 0 740.053 1048.08" width="100%" xml:space="preserve" xmlns="http://www.w3.org/2000/svg" xmlns:vectornator="http://vectornator.io" xmlns:xlink="http://www.w3.org/1999/xlink">
<defs>
<filter color-interpolation-filters="sRGB" filterUnits="userSpaceOnUse" height="437.6" id="Filter" width="425.47" x="152.817" y="41.8056">
<feDropShadow dx="-0.160051" dy="0.24267" flood-color="#020202" flood-opacity="0.677928" in="SourceGraphic" result="Shadow" stdDeviation="16.3275"/>
</filter>
<filter color-interpolation-filters="sRGB" filterUnits="userSpaceOnUse" height="605.54" id="Filter_2" width="425.47" x="155.381" y="383.547">
<feDropShadow dx="-0.160051" dy="0.24267" flood-color="#020202" flood-opacity="0.677928" in="SourceGraphic" result="Shadow" stdDeviation="16.3275"/>
</filter>
</defs>
<g id="Layer-1" vectornator:layerName="Layer 1">
<path d="M368.276 415.959C268.816 415.959 188.196 496.579 188.196 596.039L188.196 956.189L548.356 956.189L548.356 596.039C548.356 496.579 467.726 415.959 368.276 415.959Z" fill="#fff1cf" fill-rule="nonzero" opacity="1" stroke="none"/>
<path d="M266.226 447.649C221.406 469.089 188.196 541.739 188.196 595.599L188.196 958.369L548.356 958.369L548.356 605.959L266.226 447.649Z" fill="#d0d0d0" fill-rule="nonzero" opacity="1" stroke="none"/>
<path d="M457.976 439.859L188.196 606.939L188.196 957.509L548.356 957.509L548.356 595.639C548.356 540.229 511.386 469.089 457.976 439.859Z" fill="#dedede" fill-rule="nonzero" opacity="1" stroke="none"/>
<path d="M208.799 250.378C208.799 165.138 277.909 96.0279 363.149 96.0279C448.399 96.0279 517.499 165.138 517.499 250.378C517.499 335.618 448.399 404.728 363.149 404.728C277.909 404.728 208.799 335.618 208.799 250.378Z" fill="#fff1cf" fill-rule="nonzero" opacity="1" stroke="none"/>
<path d="M568.586 655.929C568.586 622.669 595.546 595.709 628.806 595.709C662.066 595.709 689.026 622.669 689.026 655.929C689.026 689.189 662.066 716.149 628.806 716.149C595.546 716.149 568.586 689.189 568.586 655.929Z" fill="#fff1cf" fill-rule="nonzero" opacity="1" stroke="none"/>
<path d="M48.3459 669.739C48.3459 636.479 75.3058 609.519 108.566 609.519C141.826 609.519 168.786 636.479 168.786 669.739C168.786 702.989 141.826 729.949 108.566 729.949C75.3058 729.949 48.3459 702.989 48.3459 669.739Z" fill="#fff1cf" fill-rule="nonzero" opacity="1" stroke="none"/>
<path d="M365.713 74.2179C266.253 74.2179 185.632 155.408 185.632 255.568L185.632 411.178C185.632 430.698 201.342 446.508 220.723 446.508L510.703 446.508C530.082 446.508 545.793 430.698 545.793 411.178L545.793 255.568C545.793 155.408 465.162 74.2179 365.713 74.2179Z" fill="#e7e7e7" fill-rule="nonzero" filter="url(#Filter)" stroke="none" vectornator:shadowAngle="2.15385" vectornator:shadowColor="#020202" vectornator:shadowOffset="0.290698" vectornator:shadowOpacity="0.677928" vectornator:shadowRadius="32.655"/>
<path d="M368.276 415.959C268.816 415.959 188.196 496.579 188.196 596.039L188.196 956.189L548.356 956.189L548.356 596.039C548.356 496.579 467.726 415.959 368.276 415.959Z" fill="#fff1cf" fill-rule="nonzero" filter="url(#Filter_2)" stroke="none" vectornator:shadowAngle="2.15385" vectornator:shadowColor="#020202" vectornator:shadowOffset="0.290698" vectornator:shadowOpacity="0.677928" vectornator:shadowRadius="32.655"/>
<path d="M266.226 447.649C221.406 469.089 188.196 541.739 188.196 595.599L188.196 958.369L548.356 958.369L548.356 605.959L266.226 447.649Z" fill="#ededed" fill-rule="nonzero" opacity="1" stroke="none"/>
<path d="M457.976 439.859L188.196 606.939L188.196 957.509L548.356 957.509L548.356 595.639C548.356 540.229 511.386 469.089 457.976 439.859Z" fill="#ffffff" fill-rule="nonzero" opacity="1" stroke="none"/>
<path d="M206.236 250.378C206.236 165.138 275.346 96.0279 360.586 96.0279C445.836 96.0279 514.936 165.138 514.936 250.378C514.936 335.618 445.836 404.728 360.586 404.728C275.346 404.728 206.236 335.618 206.236 250.378Z" fill="#fff1cf" fill-rule="nonzero" opacity="1" stroke="none"/>
<path d="M568.586 655.929C568.586 622.669 595.546 595.709 628.806 595.709C662.066 595.709 689.026 622.669 689.026 655.929C689.026 689.189 662.066 716.149 628.806 716.149C595.546 716.149 568.586 689.189 568.586 655.929Z" fill="#fff1cf" fill-rule="nonzero" opacity="1" stroke="none"/>
<path d="M48.3459 669.739C48.3459 636.479 75.3058 609.519 108.566 609.519C141.826 609.519 168.786 636.479 168.786 669.739C168.786 702.989 141.826 729.949 108.566 729.949C75.3058 729.949 48.3459 702.989 48.3459 669.739Z" fill="#fff1cf" fill-rule="nonzero" opacity="1" stroke="none"/>
<path d="M285.136 236.709C285.136 216.969 293.246 200.969 303.246 200.969C313.246 200.969 321.346 216.969 321.346 236.709C321.346 256.449 313.246 272.449 303.246 272.449C293.246 272.449 285.136 256.449 285.136 236.709Z" fill="#000000" fill-rule="nonzero" opacity="1" stroke="none"/>
<path d="M402.666 236.709C402.666 216.969 410.766 200.969 420.766 200.969C430.766 200.969 438.876 216.969 438.876 236.709C438.876 256.449 430.766 272.449 420.766 272.449C410.766 272.449 402.666 256.449 402.666 236.709Z" fill="#000000" fill-rule="nonzero" opacity="1" stroke="none"/>
</g>
</svg>
