<svg xmlns="http://www.w3.org/2000/svg" xmlns:vectornator="http://vectornator.io" xmlns:xlink="http://www.w3.org/1999/xlink" height="100%" stroke-miterlimit="10" style="fill-rule:nonzero;clip-rule:evenodd;stroke-linecap:round;stroke-linejoin:round" width="100%" version="1.1" viewBox="0 0 532.61 425.412" xml:space="preserve"><defs><filter id="Filter" width="418.122" height="320.55" x="46.657" y="68.592" color-interpolation-filters="sRGB" filterUnits="userSpaceOnUse"><feDropShadow dx="-.16" dy=".243" flood-color="#020202" flood-opacity=".678" in="SourceGraphic" result="Shadow" stdDeviation="16.328"/></filter></defs><g id="Layer-1" vectornator:layerName="Layer 1"><path fill="#b8b8b8" fill-rule="nonzero" stroke="none" d="M269.004 245.637C314.59 276.201 371.264 269.637 403.405 232.831C436.825 194.562 425.512 141.343 385.736 103.525L269.004 245.637Z" opacity="1"/><path fill="#fff" fill-rule="nonzero" stroke="none" d="M159.191 101.004C115.173 101.004 79.4718 136.705 79.4718 180.723C79.4718 224.74 115.173 260.41 159.191 260.41C164.748 260.41 170.172 259.837 175.409 258.754C195.754 315.229 245.05 353.701 302.191 356.129C375.671 359.251 425.557 298.291 432.284 219.129L230.253 216.66C235.732 205.85 238.878 193.671 238.878 180.723C238.878 136.705 203.208 101.004 159.191 101.004Z" filter="url(#Filter)" vectornator:shadowAngle="2.154" vectornator:shadowColor="#020202" vectornator:shadowOffset=".291" vectornator:shadowOpacity=".678" vectornator:shadowRadius="32.655"/><path fill="#dcdcdc" fill-rule="nonzero" stroke="none" d="M244.4 289.267C298.053 300.828 348.292 273.791 364.562 227.716C381.48 179.807 351.306 134.532 300.374 114.084L244.4 289.267Z" opacity="1"/><path fill="#000" fill-rule="nonzero" stroke="none" d="M104.838 173.836C104.838 166.092 110.045 159.815 116.468 159.815C122.89 159.815 128.097 166.092 128.097 173.836C128.097 181.58 122.89 187.858 116.468 187.858C110.045 187.858 104.838 181.58 104.838 173.836Z" opacity="1"/><path fill="#ffc47f" fill-rule="nonzero" stroke="none" d="M49.3265 212.613L92.0263 194.559L99.811 223.431L49.3265 212.613Z" opacity="1"/></g></svg>