<svg xmlns="http://www.w3.org/2000/svg" xmlns:vectornator="http://vectornator.io" xmlns:xlink="http://www.w3.org/1999/xlink" height="100%" stroke-miterlimit="10" style="fill-rule:nonzero;clip-rule:evenodd;stroke-linecap:round;stroke-linejoin:round" width="100%" version="1.1" viewBox="0 0 740.053 1048.08" xml:space="preserve"><g id="Layer-1" vectornator:layerName="Layer 1"><path fill="#883f01" fill-rule="nonzero" stroke="none" d="M363.829 56.6213C264.379 56.6213 183.749 144.408 183.749 252.701L183.749 420.961C183.749 442.06 199.459 459.163 218.839 459.163L508.829 459.163C528.199 459.163 543.909 442.06 543.909 420.961L543.909 252.701C543.909 144.408 463.289 56.6213 363.829 56.6213Z" opacity="1"/><path fill="#fff1cf" fill-rule="nonzero" stroke="none" d="M365.709 406.034C266.259 406.034 185.639 486.656 185.639 586.111L185.639 946.267L545.789 946.267L545.789 586.111C545.789 486.656 465.169 406.034 365.709 406.034Z" opacity="1"/><path fill="#d0d0d0" fill-rule="nonzero" stroke="none" d="M263.669 437.72C218.839 459.163 185.639 531.814 185.639 585.669L185.639 948.437L545.789 948.437L545.789 596.031L263.669 437.72Z" opacity="1"/><path fill="#dedede" fill-rule="nonzero" stroke="none" d="M455.409 429.93L185.639 597.012L185.639 947.577L545.789 947.577L545.789 585.713C545.789 530.305 508.829 459.163 455.409 429.93Z" opacity="1"/><path fill="#fff1cf" fill-rule="nonzero" stroke="none" d="M208.219 232.783C208.219 147.54 277.319 78.4363 362.559 78.4363C447.809 78.4363 516.909 147.54 516.909 232.783C516.909 318.027 447.809 387.131 362.559 387.131C277.319 387.131 208.219 318.027 208.219 232.783Z" opacity="1"/><path fill="#fff1cf" fill-rule="nonzero" stroke="none" d="M566.019 646.004C566.019 612.746 592.979 585.785 626.239 585.785C659.499 585.785 686.459 612.746 686.459 646.004C686.459 679.262 659.499 706.223 626.239 706.223C592.979 706.223 566.019 679.262 566.019 646.004Z" opacity="1"/><path fill="#fff1cf" fill-rule="nonzero" stroke="none" d="M45.7887 659.809C45.7887 626.551 72.7488 599.59 106.009 599.59C139.259 599.59 166.219 626.551 166.219 659.809C166.219 693.067 139.259 720.028 106.009 720.028C72.7488 720.028 45.7887 693.067 45.7887 659.809Z" opacity="1"/><path fill="#000" fill-rule="nonzero" stroke="none" d="M282.569 206.339C282.569 186.599 290.679 170.597 300.679 170.597C310.679 170.597 318.779 186.599 318.779 206.339C318.779 226.079 310.679 242.081 300.679 242.081C290.679 242.081 282.569 226.079 282.569 206.339Z" opacity="1"/><path fill="#000" fill-rule="nonzero" stroke="none" d="M400.099 206.339C400.099 186.599 408.209 170.597 418.209 170.597C428.209 170.597 436.309 186.599 436.309 206.339C436.309 226.079 428.209 242.081 418.209 242.081C408.209 242.081 400.099 226.079 400.099 206.339Z" opacity="1"/><path fill="#652f00" fill-rule="nonzero" stroke="none" d="M363.829 56.6213C264.379 56.6213 183.749 149.839 183.749 264.831L183.749 443.501C183.749 465.904 199.459 484.065 218.839 484.065L508.829 484.065C528.199 484.065 543.909 465.904 543.909 443.501L543.909 264.831C543.909 149.839 463.289 56.6213 363.829 56.6213Z" opacity="1"/><path fill="#fff1cf" fill-rule="nonzero" stroke="none" d="M365.709 406.034C266.259 406.034 185.639 486.656 185.639 586.111L185.639 946.267L545.789 946.267L545.789 586.111C545.789 486.656 465.169 406.034 365.709 406.034Z" opacity="1"/><path fill="#d0d0d0" fill-rule="nonzero" stroke="none" d="M263.669 437.72C218.744 456.61 185.639 531.814 185.639 585.669L185.639 948.437L545.789 948.437L545.789 596.031L263.669 437.72Z" opacity="1"/><path fill="#dedede" fill-rule="nonzero" stroke="none" d="M455.409 429.93L185.639 597.012L185.639 947.577L545.789 947.577L545.789 585.713C545.789 530.305 511.816 455.211 455.409 429.93Z" opacity="1"/><path fill="#fff1cf" fill-rule="nonzero" stroke="none" d="M208.219 232.783C208.219 147.54 277.319 78.4363 362.559 78.4363C447.809 78.4363 516.909 147.54 516.909 232.783C516.909 318.027 447.809 387.131 362.559 387.131C277.319 387.131 208.219 318.027 208.219 232.783Z" opacity="1"/><path fill="#fff1cf" fill-rule="nonzero" stroke="none" d="M566.019 646.004C566.019 612.746 592.979 585.785 626.239 585.785C659.499 585.785 686.459 612.746 686.459 646.004C686.459 679.262 659.499 706.223 626.239 706.223C592.979 706.223 566.019 679.262 566.019 646.004Z" opacity="1"/><path fill="#fff1cf" fill-rule="nonzero" stroke="none" d="M45.7887 659.809C45.7887 626.551 72.7488 599.59 106.009 599.59C139.259 599.59 166.219 626.551 166.219 659.809C166.219 693.067 139.259 720.028 106.009 720.028C72.7488 720.028 45.7887 693.067 45.7887 659.809Z" opacity="1"/><path fill="#000" fill-rule="nonzero" stroke="none" d="M282.569 206.339C282.569 186.599 290.679 170.597 300.679 170.597C310.679 170.597 318.779 186.599 318.779 206.339C318.779 226.079 310.679 242.081 300.679 242.081C290.679 242.081 282.569 226.079 282.569 206.339Z" opacity="1"/><path fill="#000" fill-rule="nonzero" stroke="none" d="M400.099 206.339C400.099 186.599 408.209 170.597 418.209 170.597C428.209 170.597 436.309 186.599 436.309 206.339C436.309 226.079 428.209 242.081 418.209 242.081C408.209 242.081 400.099 226.079 400.099 206.339Z" opacity="1"/></g></svg>