<svg xmlns="http://www.w3.org/2000/svg" xmlns:vectornator="http://vectornator.io" xmlns:xlink="http://www.w3.org/1999/xlink" height="100%" stroke-miterlimit="10" style="fill-rule:nonzero;clip-rule:evenodd;stroke-linecap:round;stroke-linejoin:round" width="100%" version="1.1" viewBox="0 0 740.053 1048.08" xml:space="preserve"><g id="Layer-1" vectornator:layerName="Layer 1"><path fill="#fff1cf" fill-rule="nonzero" stroke="none" d="M365.947 420.56C266.497 420.56 185.877 501.18 185.877 600.64L185.877 960.79L546.027 960.79L546.027 600.64C546.027 501.18 465.407 420.56 365.947 420.56Z" opacity="1"/><path fill="#d0d0d0" fill-rule="nonzero" stroke="none" d="M263.907 452.25C219.077 473.69 185.877 546.34 185.877 600.2L185.877 962.97L546.027 962.97L546.027 610.56L263.907 452.25Z" opacity="1"/><path fill="#dedede" fill-rule="nonzero" stroke="none" d="M455.647 444.46L185.877 611.54L185.877 962.11L546.027 962.11L546.027 600.24C546.027 544.83 509.067 473.69 455.647 444.46Z" opacity="1"/><path fill="#fff1cf" fill-rule="nonzero" stroke="none" d="M208.457 247.31C208.457 162.07 277.557 92.9596 362.807 92.9596C448.047 92.9596 517.147 162.07 517.147 247.31C517.147 332.55 448.047 401.66 362.807 401.66C277.557 401.66 208.457 332.55 208.457 247.31Z" opacity="1"/><path fill="#fff1cf" fill-rule="nonzero" stroke="none" d="M566.257 660.53C566.257 627.27 593.227 600.31 626.477 600.31C659.737 600.31 686.697 627.27 686.697 660.53C686.697 693.79 659.737 720.75 626.477 720.75C593.227 720.75 566.257 693.79 566.257 660.53Z" opacity="1"/><path fill="#fff1cf" fill-rule="nonzero" stroke="none" d="M46.0271 674.34C46.0271 641.08 72.9872 614.12 106.247 614.12C139.507 614.12 166.467 641.08 166.467 674.34C166.467 707.59 139.507 734.56 106.247 734.56C72.9872 734.56 46.0271 707.59 46.0271 674.34Z" opacity="1"/><path fill="#000" fill-rule="nonzero" stroke="none" d="M282.807 220.87C282.807 201.13 290.917 185.12 300.917 185.12C310.917 185.12 319.027 201.13 319.027 220.87C319.027 240.61 310.917 256.61 300.917 256.61C290.917 256.61 282.807 240.61 282.807 220.87Z" opacity="1"/><path fill="#000" fill-rule="nonzero" stroke="none" d="M400.337 220.87C400.337 201.13 408.447 185.12 418.447 185.12C428.447 185.12 436.557 201.13 436.557 220.87C436.557 240.61 428.447 256.61 418.447 256.61C408.447 256.61 400.337 240.61 400.337 220.87Z" opacity="1"/><path fill="#fff1cf" fill-rule="nonzero" stroke="none" d="M365.947 420.56C266.497 420.56 185.877 501.18 185.877 600.64L185.877 960.79L546.027 960.79L546.027 600.64C546.027 501.18 465.407 420.56 365.947 420.56Z" opacity="1"/><path fill="#66b96a" fill-rule="nonzero" stroke="none" d="M266.597 450.43C221.767 471.87 185.877 546.34 185.877 600.2L185.877 962.97L546.027 962.97L546.027 754.01L266.597 450.43Z" opacity="1"/><path fill="#fa5c5c" fill-rule="nonzero" stroke="none" d="M467.237 451.73L185.877 672.08L185.877 695.43L185.877 962.11L546.027 962.11L546.027 600.24C546.027 544.83 520.647 480.96 467.237 451.73Z" opacity="1"/><path fill="#652f00" fill-rule="nonzero" stroke="none" d="M362.297 74.3496C283.827 74.3496 220.207 107.15 220.207 147.6L220.207 188.16C220.207 208.36 250.027 224.73 286.797 224.73L437.807 224.73C474.577 224.73 504.397 208.36 504.397 188.16L504.397 147.6C504.397 107.15 440.777 74.3496 362.297 74.3496Z" opacity="1"/><path fill="#652f00" fill-rule="nonzero" stroke="none" d="M361.347 514.97C261.897 514.97 181.277 436.64 181.277 340.01L181.277 243.13C181.277 194.89 219.057 155.79 265.667 155.79L457.037 155.79C503.647 155.79 541.427 194.89 541.427 243.13L541.427 340.01C541.427 436.64 460.807 514.97 361.347 514.97Z" opacity="1"/><path fill="#fff1cf" fill-rule="nonzero" stroke="none" d="M208.457 247.31C208.457 162.07 277.557 92.9596 362.807 92.9596C448.047 92.9596 517.147 162.07 517.147 247.31C517.147 332.55 448.047 401.66 362.807 401.66C277.557 401.66 208.457 332.55 208.457 247.31Z" opacity="1"/><path fill="#fff1cf" fill-rule="nonzero" stroke="none" d="M566.257 660.53C566.257 627.27 593.227 600.31 626.477 600.31C659.737 600.31 686.697 627.27 686.697 660.53C686.697 693.79 659.737 720.75 626.477 720.75C593.227 720.75 566.257 693.79 566.257 660.53Z" opacity="1"/><path fill="#fff1cf" fill-rule="nonzero" stroke="none" d="M46.0271 674.34C46.0271 641.08 72.9872 614.12 106.247 614.12C139.507 614.12 166.467 641.08 166.467 674.34C166.467 707.59 139.507 734.56 106.247 734.56C72.9872 734.56 46.0271 707.59 46.0271 674.34Z" opacity="1"/><path fill="#000" fill-rule="nonzero" stroke="none" d="M282.807 220.87C282.807 201.13 290.917 185.12 300.917 185.12C310.917 185.12 319.027 201.13 319.027 220.87C319.027 240.61 310.917 256.61 300.917 256.61C290.917 256.61 282.807 240.61 282.807 220.87Z" opacity="1"/><path fill="#000" fill-rule="nonzero" stroke="none" d="M400.337 220.87C400.337 201.13 408.447 185.12 418.447 185.12C428.447 185.12 436.557 201.13 436.557 220.87C436.557 240.61 428.447 256.61 418.447 256.61C408.447 256.61 400.337 240.61 400.337 220.87Z" opacity="1"/></g></svg>