<?xml version="1.0" encoding="UTF-8" standalone="no"?>
<!DOCTYPE svg PUBLIC "-//W3C//DTD SVG 1.1//EN" "http://www.w3.org/Graphics/SVG/1.1/DTD/svg11.dtd">
<!-- Created with Vectornator (http://vectornator.io/) -->
<svg height="100%" stroke-miterlimit="10" style="fill-rule:nonzero;clip-rule:evenodd;stroke-linecap:round;stroke-linejoin:round;" version="1.1" viewBox="0 0 740.053 1048.08" width="100%" xml:space="preserve" xmlns="http://www.w3.org/2000/svg" xmlns:vectornator="http://vectornator.io" xmlns:xlink="http://www.w3.org/1999/xlink">
<defs/>
<g id="Layer-1" vectornator:layerName="Layer 1">
<path d="M364.601 79.5454C269.816 79.5454 192.979 144.23 192.979 224.024L192.979 350.081C192.979 364.481 204.652 376.154 219.052 376.154L510.15 376.154C524.551 376.154 536.221 364.481 536.221 350.081L536.221 224.024C536.221 144.23 459.386 79.5454 364.601 79.5454Z" fill="#883f01" fill-rule="nonzero" opacity="1" stroke="none"/>
<path d="M370.03 428.958C270.575 428.958 189.953 509.581 189.953 609.035L189.953 969.186L550.111 969.186L550.111 609.035C550.111 509.58 469.484 428.958 370.03 428.958Z" fill="#ffcc7d" fill-rule="nonzero" opacity="1" stroke="none"/>
<path d="M267.985 460.644C223.156 482.087 189.953 554.738 189.953 608.593L189.953 971.366L550.111 971.366L550.111 618.955L267.985 460.644Z" fill="#69ac79" fill-rule="nonzero" opacity="1" stroke="none"/>
<path d="M459.73 452.854L189.953 619.936L189.953 970.506L550.111 970.506L550.111 608.637C550.111 553.229 516.571 481.296 459.73 452.854Z" fill="#4bcc57" fill-rule="nonzero" opacity="1" stroke="none"/>
<path d="M212.534 255.707C212.534 170.464 281.638 101.36 366.882 101.36C452.126 101.36 521.231 170.464 521.231 255.707C521.231 340.951 452.126 410.055 366.882 410.055C281.638 410.055 212.534 340.951 212.534 255.707Z" fill="#ffcc7d" fill-rule="nonzero" opacity="1" stroke="none"/>
<path d="M568.121 600.09C568.121 566.832 595.081 539.871 628.341 539.871C661.601 539.871 688.561 566.832 688.561 600.09C688.561 633.348 661.601 660.309 628.341 660.309C595.081 660.309 568.121 633.348 568.121 600.09Z" fill="#ffcc7d" fill-rule="nonzero" opacity="1" stroke="none"/>
<path d="M46.7726 605.013C46.7726 571.755 73.7336 544.794 106.992 544.794C140.25 544.794 167.211 571.755 167.211 605.013C167.211 638.271 140.25 665.232 106.992 665.232C73.7336 665.232 46.7726 638.271 46.7726 605.013Z" fill="#ffcc7d" fill-rule="nonzero" opacity="1" stroke="none"/>
<path d="M286.889 229.263C286.889 209.523 294.995 193.521 304.995 193.521C314.995 193.521 323.102 209.523 323.102 229.263C323.102 249.003 314.995 265.005 304.995 265.005C294.995 265.005 286.889 249.003 286.889 229.263Z" fill="#000000" fill-rule="nonzero" opacity="1" stroke="none"/>
<path d="M404.418 229.263C404.418 209.523 412.525 193.521 422.525 193.521C432.525 193.521 440.631 209.523 440.631 229.263C440.631 249.003 432.525 265.005 422.525 265.005C412.525 265.005 404.418 249.003 404.418 229.263Z" fill="#000000" fill-rule="nonzero" opacity="1" stroke="none"/>
</g>
</svg>
