<svg xmlns="http://www.w3.org/2000/svg" xmlns:vectornator="http://vectornator.io" xmlns:xlink="http://www.w3.org/1999/xlink" height="100%" stroke-miterlimit="10" style="fill-rule:nonzero;clip-rule:evenodd;stroke-linecap:round;stroke-linejoin:round" width="100%" version="1.1" viewBox="0 0 740.053 1048.08" xml:space="preserve"><g id="Layer-1" vectornator:layerName="Layer 1"><path fill="#a24b00" fill-rule="nonzero" stroke="none" d="M364.076 99.7242C264.616 99.7242 183.996 181.248 183.996 281.815L183.996 438.072C183.996 457.665 199.706 473.548 219.076 473.548L509.066 473.548C528.446 473.548 544.146 457.665 544.146 438.072L544.146 281.815C544.146 181.248 463.526 99.7242 364.076 99.7242Z" opacity="1"/><path fill="#ffcf90" fill-rule="nonzero" stroke="none" d="M365.956 449.137C266.496 449.137 185.876 521.709 185.876 611.232L185.876 935.423L546.026 935.423L546.026 611.232C546.026 521.709 465.406 449.137 365.956 449.137Z" opacity="1"/><path fill="#ff8a8a" fill-rule="nonzero" stroke="none" d="M263.906 477.659C219.076 496.961 185.876 562.357 185.876 610.835L185.876 937.381L546.026 937.381L546.026 620.162L263.906 477.659Z" opacity="1"/><path fill="#ed6363" fill-rule="nonzero" stroke="none" d="M455.656 470.647L185.876 621.045L185.876 936.607L546.026 936.607L546.026 610.874C546.026 560.999 509.066 496.961 455.656 470.647Z" opacity="1"/><path fill="#ffcf90" fill-rule="nonzero" stroke="none" d="M208.456 275.886C208.456 190.643 277.566 121.539 362.806 121.539C448.046 121.539 517.156 190.643 517.156 275.886C517.156 361.13 448.046 430.234 362.806 430.234C277.566 430.234 208.456 361.13 208.456 275.886Z" opacity="1"/><path fill="#ffcf90" fill-rule="nonzero" stroke="none" d="M566.266 689.107C566.266 655.849 593.226 628.888 626.486 628.888C659.736 628.888 686.706 655.849 686.706 689.107C686.706 722.365 659.736 749.326 626.486 749.326C593.226 749.326 566.266 722.365 566.266 689.107Z" opacity="1"/><path fill="#ffcf90" fill-rule="nonzero" stroke="none" d="M46.026 702.912C46.026 669.654 72.986 642.693 106.246 642.693C139.506 642.693 166.466 669.654 166.466 702.912C166.466 736.17 139.506 763.131 106.246 763.131C72.986 763.131 46.026 736.17 46.026 702.912Z" opacity="1"/><path fill="#000" fill-rule="nonzero" stroke="none" d="M282.816 257.052C282.816 241.514 290.916 228.919 300.916 228.919C310.916 228.919 319.026 241.514 319.026 257.052C319.026 272.589 310.916 285.184 300.916 285.184C290.916 285.184 282.816 272.589 282.816 257.052Z" opacity="1"/><path fill="#000" fill-rule="nonzero" stroke="none" d="M400.346 257.052C400.346 241.514 408.446 228.919 418.446 228.919C428.446 228.919 436.556 241.514 436.556 257.052C436.556 272.589 428.446 285.184 418.446 285.184C408.446 285.184 400.346 272.589 400.346 257.052Z" opacity="1"/></g></svg>