<svg xmlns="http://www.w3.org/2000/svg" xmlns:vectornator="http://vectornator.io" xmlns:xlink="http://www.w3.org/1999/xlink" height="100%" stroke-miterlimit="10" style="fill-rule:nonzero;clip-rule:evenodd;stroke-linecap:round;stroke-linejoin:round" width="100%" version="1.1" viewBox="0 0 740.053 1048.08" xml:space="preserve"><g id="Layer-1" vectornator:layerName="Layer 1"><path fill="#a24b00" fill-rule="nonzero" stroke="none" d="M361.644 94.0706C262.189 94.0706 181.567 156.421 181.567 233.321L181.567 352.821C181.567 367.801 197.274 379.951 216.65 379.951L506.637 379.951C526.013 379.951 541.723 367.801 541.723 352.821L541.723 233.321C541.723 156.411 461.098 94.0706 361.644 94.0706Z" opacity="1"/><path fill="#ebc59e" fill-rule="nonzero" stroke="none" d="M363.524 443.481C264.07 443.481 183.447 516.051 183.447 605.581L183.447 929.771L543.603 929.771L543.603 605.581C543.603 516.051 462.979 443.481 363.524 443.481Z" opacity="1"/><path fill="#8acaff" fill-rule="nonzero" stroke="none" d="M261.479 472.001C216.65 491.311 183.447 556.701 183.447 605.181L183.447 931.731L543.603 931.731L543.603 614.511L261.479 472.001Z" opacity="1"/><path fill="#6367ed" fill-rule="nonzero" stroke="none" d="M453.224 464.991L183.447 615.391L183.447 930.951L543.603 930.951L543.603 605.221C543.603 555.341 506.637 491.311 453.224 464.991Z" opacity="1"/><path fill="#ebc59e" fill-rule="nonzero" stroke="none" d="M206.029 270.231C206.029 184.991 275.133 115.881 360.377 115.881C445.621 115.881 514.724 184.991 514.724 270.231C514.724 355.481 445.621 424.581 360.377 424.581C275.133 424.581 206.029 355.481 206.029 270.231Z" opacity="1"/><path fill="#ebc59e" fill-rule="nonzero" stroke="none" d="M563.833 683.451C563.833 650.191 590.793 623.231 624.053 623.231C657.313 623.231 684.273 650.191 684.273 683.451C684.273 716.711 657.313 743.671 624.053 743.671C590.793 743.671 563.833 716.711 563.833 683.451Z" opacity="1"/><path fill="#ebc59e" fill-rule="nonzero" stroke="none" d="M43.5993 697.261C43.5993 664.001 70.5603 637.041 103.817 637.041C137.075 637.041 164.036 664.001 164.036 697.261C164.036 730.521 137.075 757.481 103.817 757.481C70.5603 757.481 43.5993 730.521 43.5993 697.261Z" opacity="1"/><path fill="#000" fill-rule="nonzero" stroke="none" d="M280.384 251.401C280.384 235.861 288.49 223.261 298.49 223.261C308.49 223.261 316.596 235.861 316.596 251.401C316.596 266.931 308.49 279.531 298.49 279.531C288.49 279.531 280.384 266.931 280.384 251.401Z" opacity="1"/><path fill="#000" fill-rule="nonzero" stroke="none" d="M397.913 251.401C397.913 235.861 406.02 223.261 416.019 223.261C426.019 223.261 434.126 235.861 434.126 251.401C434.126 266.931 426.019 279.531 416.019 279.531C406.02 279.531 397.913 266.931 397.913 251.401Z" opacity="1"/></g></svg>